<svg version="1.1" xmlns="http://www.w3.org/2000/svg" style="display: block;" viewBox="0 0 2048 847" width="1554" height="643" preserveAspectRatio="none">
<defs>
	<linearGradient id="Gradient1" gradientUnits="userSpaceOnUse" x1="752.468" y1="520.036" x2="778.462" y2="518.647">
		<stop class="stop0" offset="0" stop-opacity="1" stop-color="rgb(202,201,201)"/>
		<stop class="stop1" offset="1" stop-opacity="1" stop-color="rgb(247,247,247)"/>
	</linearGradient>
	<linearGradient id="Gradient2" gradientUnits="userSpaceOnUse" x1="1139.03" y1="472.29" x2="1117.95" y2="472.711">
		<stop class="stop0" offset="0" stop-opacity="1" stop-color="rgb(177,175,176)"/>
		<stop class="stop1" offset="1" stop-opacity="1" stop-color="rgb(210,209,209)"/>
	</linearGradient>
	<linearGradient id="Gradient3" gradientUnits="userSpaceOnUse" x1="737.356" y1="477.695" x2="778.684" y2="480.754">
		<stop class="stop0" offset="0" stop-opacity="1" stop-color="rgb(177,175,176)"/>
		<stop class="stop1" offset="1" stop-opacity="1" stop-color="rgb(247,247,247)"/>
	</linearGradient>
	<linearGradient id="Gradient4" gradientUnits="userSpaceOnUse" x1="840.589" y1="506.766" x2="816.415" y2="506.096">
		<stop class="stop0" offset="0" stop-opacity="1" stop-color="rgb(157,156,156)"/>
		<stop class="stop1" offset="1" stop-opacity="1" stop-color="rgb(193,192,192)"/>
	</linearGradient>
	<linearGradient id="Gradient5" gradientUnits="userSpaceOnUse" x1="879.832" y1="505.514" x2="851.136" y2="506.677">
		<stop class="stop0" offset="0" stop-opacity="1" stop-color="rgb(98,98,99)"/>
		<stop class="stop1" offset="1" stop-opacity="1" stop-color="rgb(138,137,137)"/>
	</linearGradient>
	<linearGradient id="Gradient6" gradientUnits="userSpaceOnUse" x1="951.602" y1="506.127" x2="990.627" y2="506.898">
		<stop class="stop0" offset="0" stop-opacity="1" stop-color="rgb(40,39,40)"/>
		<stop class="stop1" offset="1" stop-opacity="1" stop-color="rgb(85,84,85)"/>
	</linearGradient>
	<linearGradient id="Gradient7" gradientUnits="userSpaceOnUse" x1="816.094" y1="499.336" x2="789.814" y2="499.508">
		<stop class="stop0" offset="0" stop-opacity="1" stop-color="rgb(197,196,196)"/>
		<stop class="stop1" offset="1" stop-opacity="1" stop-color="rgb(243,243,242)"/>
	</linearGradient>
	<linearGradient id="Gradient8" gradientUnits="userSpaceOnUse" x1="706.987" y1="499.527" x2="737.029" y2="499.499">
		<stop class="stop0" offset="0" stop-opacity="1" stop-color="rgb(127,126,126)"/>
		<stop class="stop1" offset="1" stop-opacity="1" stop-color="rgb(174,173,173)"/>
	</linearGradient>
	<linearGradient id="Gradient9" gradientUnits="userSpaceOnUse" x1="1270.78" y1="499.475" x2="1307.18" y2="499.758">
		<stop class="stop0" offset="0" stop-opacity="1" stop-color="rgb(49,48,48)"/>
		<stop class="stop1" offset="1" stop-opacity="1" stop-color="rgb(97,96,96)"/>
	</linearGradient>
	<linearGradient id="Gradient10" gradientUnits="userSpaceOnUse" x1="1198.14" y1="506.501" x2="1148.79" y2="507.408">
		<stop class="stop0" offset="0" stop-opacity="1" stop-color="rgb(83,82,82)"/>
		<stop class="stop1" offset="1" stop-opacity="1" stop-color="rgb(157,156,156)"/>
	</linearGradient>
	<linearGradient id="Gradient11" gradientUnits="userSpaceOnUse" x1="1011.99" y1="506.966" x2="1037.04" y2="507.008">
		<stop class="stop0" offset="0" stop-opacity="1" stop-color="rgb(120,119,119)"/>
		<stop class="stop1" offset="1" stop-opacity="1" stop-color="rgb(158,157,157)"/>
	</linearGradient>
	<linearGradient id="Gradient12" gradientUnits="userSpaceOnUse" x1="1037.72" y1="506.915" x2="1065.07" y2="507.259">
		<stop class="stop0" offset="0" stop-opacity="1" stop-color="rgb(160,159,159)"/>
		<stop class="stop1" offset="1" stop-opacity="1" stop-color="rgb(206,205,205)"/>
	</linearGradient>
	<linearGradient id="Gradient13" gradientUnits="userSpaceOnUse" x1="941.084" y1="506.706" x2="887.97" y2="507.283">
		<stop class="stop0" offset="0" stop-opacity="1" stop-color="rgb(34,33,33)"/>
		<stop class="stop1" offset="1" stop-opacity="1" stop-color="rgb(77,77,77)"/>
	</linearGradient>
</defs>
<path transform="translate(0,0)" fill="rgb(255,255,255)" d="M 0 0 L 2048 0 L 2048 847 L 0 847 L 0 0 z"/>
<path transform="translate(0,0)" fill="rgb(10,10,10)" d="M 1065.93 235.154 L 1067.93 235.979 C 1071.81 245.815 1079.44 275.04 1082.86 286.886 L 1113.55 392.735 C 1063.64 408.378 1007.73 423.39 957.227 437.903 L 955.228 437.344 C 953.221 433.179 943.338 397.504 941.425 390.879 L 909.397 280.397 L 1065.93 235.154 z"/>
<path transform="translate(0,0)" fill="rgb(255,255,255)" d="M 1061.96 243.163 L 1063.04 243.695 C 1065.74 249.418 1074.3 280.911 1076.76 289.442 L 1105.38 388.312 C 1058.24 400.898 1008.47 416.279 961.227 429.876 L 959.668 429.039 C 955.11 417.128 949.1 393.755 945.242 380.384 L 917.53 284.793 C 962.988 273.297 1016.23 256.367 1061.96 243.163 z"/>
<path transform="translate(0,0)" fill="rgb(10,10,10)" d="M 1029.27 254.861 C 1032.51 255.903 1087.72 345.027 1094.42 355.653 C 1062.07 374.714 1025.73 398.847 993.67 419.116 C 990.837 417.839 935.949 329.335 929.001 318.045 L 1029.27 254.861 z"/>
<path transform="translate(0,0)" fill="rgb(255,255,255)" d="M 1007.9 282.737 C 1012.89 286.343 1023.21 295.976 1028.01 300.246 C 1040.41 311.214 1052.75 322.253 1065.02 333.363 C 1051.13 350.624 1029.89 373.039 1014.78 389.96 C 1012.67 389.705 963.151 344.806 957.237 339.517 C 973.384 322.824 992.125 300.521 1007.9 282.737 z"/>
<path transform="translate(0,0)" fill="rgb(255,255,255)" d="M 1072.67 334.663 C 1076.11 338.253 1082.37 348.941 1085.28 353.615 L 1030.69 387.836 L 1019.3 394.894 L 1072.67 334.663 z"/>
<path transform="translate(0,0)" fill="rgb(255,255,255)" d="M 1027.41 263.894 C 1030.83 265.418 1063.47 319.187 1068.61 327.478 L 1057.68 317.93 L 1009.53 275.145 L 1027.41 263.894 z"/>
<path transform="translate(0,0)" fill="rgb(255,255,255)" d="M 956.177 348.564 C 961.467 351.114 1006.97 392.758 1013.44 398.587 L 1005.47 403.785 L 995.059 410.436 C 983.027 392.751 967.087 366.838 956.177 348.564 z"/>
<path transform="translate(0,0)" fill="rgb(255,255,255)" d="M 997.055 283.102 C 997.302 283.362 997.41 284.047 997.527 284.473 C 991.775 290.961 952.45 336.108 949.315 337.497 L 946.95 334.427 L 938.008 320.242 L 997.055 283.102 z"/>
<path transform="translate(0,0)" fill="url(#Gradient13)" d="M 908.098 483.381 C 915.807 482.861 930.282 482.341 935.889 487.368 C 950.592 500.55 947.364 527.738 925.517 531.31 C 916.245 531.549 899.946 532.811 892.929 526.763 C 883.873 518.957 884.27 497.447 892.374 488.963 C 897.372 483.73 901.597 483.879 908.098 483.381 z"/>
<path transform="translate(0,0)" fill="rgb(255,255,255)" d="M 903.511 492.145 C 910.654 491.828 919.602 491.241 926.528 492.388 C 936.117 493.976 934.846 509.325 933.024 516.31 C 932.038 520.091 930.798 520.341 927.801 522.108 C 884.186 529.188 893.276 496.353 903.511 492.145 z"/>
<path transform="translate(0,0)" fill="rgb(255,255,255)" d="M 1029.9 483.738 C 1048.39 482.193 1066.26 480.564 1067.58 504.568 C 1069.04 531.206 1053.16 533.678 1030.51 531.025 C 1008.55 533.014 1005.35 502.357 1015.78 489.153 C 1019.48 484.471 1024.41 484.134 1029.9 483.738 z"/>
<path transform="translate(0,0)" fill="url(#Gradient12)" d="M 1029.9 483.738 C 1048.39 482.193 1066.26 480.564 1067.58 504.568 C 1069.04 531.206 1053.16 533.678 1030.51 531.025 C 1033.06 530.299 1035.02 529.723 1037.51 528.782 C 1038.28 525.698 1038.02 526.518 1036.95 523.128 C 1043.03 523.013 1048.8 523.136 1054.4 520.739 C 1057.05 518.409 1057.51 514.947 1057.76 511.627 C 1059.55 487.556 1049.62 492.803 1033.21 491.458 L 1033.47 490.126 C 1035.96 489.646 1036.22 489.481 1038.1 487.769 L 1038.14 486.254 C 1036.01 484.198 1032.92 484.155 1029.9 483.738 z"/>
<path transform="translate(0,0)" fill="url(#Gradient11)" d="M 1030.51 531.025 C 1008.55 533.014 1005.35 502.357 1015.78 489.153 C 1019.48 484.471 1024.41 484.134 1029.9 483.738 C 1032.92 484.155 1036.01 484.198 1038.14 486.254 L 1038.1 487.769 C 1036.22 489.481 1035.96 489.646 1033.47 490.126 L 1033.21 491.458 C 1029.62 491.951 1025.62 491.994 1023.24 495.231 C 1017.61 502.894 1017.69 514.117 1024.97 520.706 C 1027.51 523.009 1033.46 522.96 1036.95 523.128 C 1038.02 526.518 1038.28 525.698 1037.51 528.782 C 1035.02 529.723 1033.06 530.299 1030.51 531.025 z"/>
<path transform="translate(0,0)" fill="url(#Gradient10)" d="M 1165.18 483.453 C 1191.53 482.442 1200.56 481.304 1200.97 512.048 C 1201.03 517.173 1202.06 525.311 1199.48 529.779 C 1193.18 531.565 1161.77 532.815 1154.79 529.103 C 1150.37 526.753 1149.74 526.073 1147.89 521.616 C 1146.5 490.097 1179.9 509.128 1190.11 501.019 C 1192.38 486.652 1169.99 491.129 1162.43 494.335 C 1158.5 496 1153.27 498.735 1150.07 495.463 C 1149 485.509 1157.5 484.186 1165.18 483.453 z"/>
<path transform="translate(0,0)" fill="rgb(255,255,255)" d="M 1160.07 511.328 C 1167.85 510.92 1187.69 507.768 1191.12 515.187 C 1190.84 518.954 1190.6 519.424 1188.81 522.773 C 1180.75 523.091 1160.03 526.072 1157.07 517.741 C 1157.73 514.368 1157.81 513.882 1160.07 511.328 z"/>
<path transform="translate(0,0)" fill="rgb(10,10,10)" d="M 1222.12 483.277 C 1232.1 482.51 1250.58 481.414 1258.57 487.572 C 1261.51 489.836 1262.37 495.848 1259.51 498.717 C 1256.4 498.849 1255.2 498.996 1252.14 498.251 C 1248.77 488.22 1222.78 490.143 1217.98 494.631 L 1218.09 497.406 C 1226.12 509.991 1258.79 492.41 1262.31 512.418 C 1263.99 522.009 1258.61 529.375 1249.25 531.17 C 1237.81 531.694 1219.6 533.285 1209.77 526.192 C 1206.32 523.705 1206.73 518.228 1210.01 515.481 C 1212.71 515.312 1215.7 514.736 1217.82 516.251 L 1218.5 520.464 C 1223.64 524.424 1247.36 524.495 1252.16 519.445 C 1252.17 518.686 1252.16 516.086 1251.95 515.489 C 1246.02 504.456 1222.81 514.927 1213.33 508.1 C 1205.67 502.579 1206.25 494.704 1211.18 488.094 C 1214.38 483.801 1217.28 483.882 1222.12 483.277 z"/>
<path transform="translate(0,0)" fill="url(#Gradient9)" d="M 1279.19 509.286 C 1279.01 516.599 1282.09 526.762 1275.54 530.746 C 1271.69 530.797 1271.9 531.46 1269.7 529.502 C 1269.56 519.937 1268.09 476.434 1270.42 469.795 C 1273.33 468.283 1276.21 469.117 1278.7 470.84 C 1279.82 473.134 1279.16 498.116 1279.17 502.373 L 1305.47 484.874 C 1308.9 483.2 1318.24 483.876 1322.54 483.925 C 1320.95 485 1312.18 491.079 1310.96 491.485 C 1303.82 496.681 1297.12 501.158 1289.76 505.99 C 1295.75 510.376 1305.18 516.879 1310.68 521.413 C 1315.18 524.583 1318.96 527.213 1323.15 530.796 C 1318.27 530.906 1309.58 532.141 1306 528.686 C 1297 522.304 1288.06 515.837 1279.19 509.286 z"/>
<path transform="translate(0,0)" fill="rgb(99,98,98)" d="M 1310.68 521.413 C 1315.18 524.583 1318.96 527.213 1323.15 530.796 C 1318.27 530.906 1309.58 532.141 1306 528.686 C 1308.78 525.313 1305.91 524.414 1310.68 521.413 z"/>
<path transform="translate(0,0)" fill="rgb(99,98,98)" d="M 1305.47 484.874 C 1308.9 483.2 1318.24 483.876 1322.54 483.925 C 1320.95 485 1312.18 491.079 1310.96 491.485 L 1308.74 491.615 C 1306.51 490.245 1306.44 487.931 1305.47 484.874 z"/>
<path transform="translate(0,0)" fill="url(#Gradient8)" d="M 744.178 531.993 C 736.853 532.166 717.382 532.917 712.556 527.414 C 702.868 516.367 701.077 485.209 711.531 473.997 C 717.497 467.598 725.312 468.086 733.219 468.01 C 736.704 469.631 736.54 468.909 738.245 471.705 C 735.804 475.909 735.514 473.789 731.49 476.667 C 726.982 476.869 722.716 476.498 719.287 480.013 C 712.163 487.318 712.923 513.455 719.502 520.805 C 723.108 522.984 728.159 523.022 732.418 523.169 C 736.001 523.192 741.107 523.058 744.551 523.287 L 745.092 523.629 C 747.651 525.218 748.43 525.279 751.399 525.687 L 753.364 527.514 C 751.862 531.1 749.245 531.055 745.673 531.831 L 744.178 531.993 z"/>
<path transform="translate(0,0)" fill="rgb(189,188,188)" d="M 732.418 523.169 C 736.001 523.192 741.107 523.058 744.551 523.287 L 745.092 523.629 C 747.651 525.218 748.43 525.279 751.399 525.687 L 753.364 527.514 C 751.862 531.1 749.245 531.055 745.673 531.831 L 744.178 531.993 C 742.011 531.576 740.94 531.433 738.865 530.512 L 738.534 527.183 C 739.681 524.731 739.177 525.494 742.327 524.267 C 737.882 524.386 736.757 524.196 732.418 523.169 z"/>
<path transform="translate(0,0)" fill="url(#Gradient7)" d="M 821.822 491.347 C 816.873 492.095 811.195 491.648 806.727 492.427 C 789.825 495.374 804.669 523.566 794.476 531.256 C 792.088 531.268 791.15 531.463 789.217 529.956 C 788.532 522.527 786.959 472.182 790.877 469.206 C 793.765 469.076 794.691 468.84 797.089 470.608 C 799.232 474.503 798.19 482.199 798.099 487.311 C 806.933 482.589 815.459 482.996 825.137 483.439 L 824.566 483.765 C 821.936 485.243 821.199 485.36 818.248 485.882 C 817.202 487.934 817.375 487.021 817.643 489.358 L 821.424 489.898 L 821.822 491.347 z"/>
<path transform="translate(0,0)" fill="url(#Gradient6)" d="M 992.829 493.314 L 992.473 493.239 C 940.48 482.759 970.107 520.376 955.767 531.473 C 952.463 531.297 953.743 531.737 950.958 529.607 C 949.547 525.617 949.678 489.38 950.642 484.817 C 956.916 480.97 959.265 486.435 961.331 486.065 C 972.127 484.135 989.332 479.359 998.62 487.59 C 993.357 488.866 994.833 484.085 992.108 487.651 C 991.833 490.435 991.802 490.801 993.314 493.129 L 992.829 493.314 z"/>
<path transform="translate(0,0)" fill="url(#Gradient5)" d="M 872.432 483.4 C 875.278 483.155 877.199 483.224 880.034 483.32 L 881.107 484.521 C 881.318 487.576 881.439 488.133 880.013 490.909 C 872.538 495.408 863.19 487.565 860.935 498.783 C 859.705 504.9 862.931 527.343 859.69 531.048 C 856.291 531.089 854.854 531.106 851.527 530.521 L 851.435 529.847 C 850.702 524.164 850.132 486.28 852.309 483.492 C 855.804 482.367 858.546 484.661 862.903 485.714 C 866.899 484.085 868.109 483.958 872.432 483.4 z"/>
<path transform="translate(0,0)" fill="url(#Gradient4)" d="M 825.137 483.439 C 830.742 484.15 834.176 484.261 838.199 488.961 C 844.583 496.421 843.919 516.617 842.528 525.893 C 842.32 527.261 842.072 528.622 841.784 529.976 C 839.379 531.538 838.901 531.488 836.129 531.44 C 826.228 522.899 843.207 493.588 821.822 491.347 L 821.424 489.898 L 817.643 489.358 C 817.375 487.021 817.202 487.934 818.248 485.882 C 821.199 485.36 821.936 485.243 824.566 483.765 L 825.137 483.439 z"/>
<path transform="translate(0,0)" fill="url(#Gradient3)" d="M 733.219 468.01 C 744.744 467.926 765.984 465.834 775.706 473.568 C 778.822 476.046 780.368 486.669 779.508 490.76 C 777.109 492.853 773.99 492.789 771.347 491.001 C 768.387 485.474 772.042 479.478 764.292 477.782 C 755.051 475.76 741.122 476.54 731.49 476.667 C 735.514 473.789 735.804 475.909 738.245 471.705 C 736.54 468.909 736.704 469.631 733.219 468.01 z"/>
<path transform="translate(0,0)" fill="rgb(99,98,98)" d="M 992.829 493.314 L 993.314 493.129 C 991.802 490.801 991.833 490.435 992.108 487.651 C 994.833 484.085 993.357 488.866 998.62 487.59 C 1007.33 493.758 1004.51 519.187 1004.25 529.211 L 1003.17 530.686 C 999.033 531.111 1000.5 531.425 996.911 529.79 C 992.565 524.097 995.374 503.673 992.829 493.314 z"/>
<path transform="translate(0,0)" fill="url(#Gradient2)" d="M 1096.98 469.541 C 1104.76 468.801 1134.71 467.932 1140.89 470.089 C 1141.64 472.732 1141.68 473.054 1140.65 475.592 C 1135.89 479.696 1119.31 478.015 1111.76 477.936 C 1111.72 490.847 1112.68 518.662 1111.16 529.816 C 1109.24 531.362 1106.44 530.901 1103.88 530.823 C 1100.79 526.637 1102.05 504.743 1102.13 498.5 C 1102.26 491.651 1101.55 485.87 1101.61 479.248 L 1103.65 480.406 L 1103.3 480.16 C 1106.92 488.187 1099.58 527.394 1107.08 530.474 C 1108.68 529.369 1110.85 527.49 1110.92 525.521 C 1111.45 510.901 1110.15 495.82 1110.32 481.238 C 1110.34 479.542 1116.03 476.093 1117.95 472.336 L 1117.39 470.844 C 1114.79 469.546 1101.92 469.965 1096.98 469.541 z"/>
<path transform="translate(0,0)" fill="url(#Gradient1)" d="M 744.551 523.287 C 755.528 523.358 768.611 525.229 771.183 511.808 C 771.867 508.242 774.401 508.326 777.382 507.927 L 779.356 508.713 C 780.66 512.085 779.463 519.666 778.111 522.851 C 773.824 532.949 754.23 532.379 745.673 531.831 C 749.245 531.055 751.862 531.1 753.364 527.514 L 751.399 525.687 C 748.43 525.279 747.651 525.218 745.092 523.629 L 744.551 523.287 z"/>
</svg>