<?xml version="1.0" encoding="UTF-8"?>
<svg version="1.1" xmlns="http://www.w3.org/2000/svg" width="500" height="500">
<path d="M0 0 C2.38098762 2.13817762 4.72462058 4.31132019 7.06640625 6.4921875 C8.41646789 7.66360204 9.77048139 8.8304817 11.12890625 9.9921875 C19.30467088 17.15008585 26.32403632 24.98659911 33.06640625 33.4921875 C33.94046748 34.56456793 34.81549915 35.63615798 35.69140625 36.70703125 C61.72165356 68.80339311 78.41334549 106.96507794 86.06640625 147.4921875 C86.23011719 148.31219238 86.39382813 149.13219727 86.5625 149.97705078 C91.85669079 177.49262295 91.74199609 210.05762025 86.06640625 237.4921875 C85.86772949 238.46994141 85.66905273 239.44769531 85.46435547 240.45507812 C77.35107371 279.22866434 61.79653467 315.37570723 37.06640625 346.4921875 C36.36257813 347.38808594 35.65875 348.28398437 34.93359375 349.20703125 C-7.14551944 401.76821744 -67.48263293 433.93531477 -134.16894531 442.02270508 C-138.92285994 442.54017812 -143.63875314 442.68648233 -148.41796875 442.73046875 C-149.74609085 442.74522751 -149.74609085 442.74522751 -151.1010437 442.76028442 C-204.29862534 443.22887048 -255.40469853 432.02802989 -299.93359375 401.4921875 C-300.54235352 401.07727051 -301.15111328 400.66235352 -301.77832031 400.23486328 C-314.73809233 391.34083504 -326.53785043 381.2958939 -337.93359375 370.4921875 C-339.06474609 369.42484375 -339.06474609 369.42484375 -340.21875 368.3359375 C-345.60768051 363.10771068 -350.26561685 357.36309524 -354.93359375 351.4921875 C-355.80914299 350.41865639 -356.68546792 349.34575753 -357.5625 348.2734375 C-364.72047585 339.44526728 -371.02874082 330.20012936 -376.93359375 320.4921875 C-377.36027344 319.7914209 -377.78695312 319.0906543 -378.2265625 318.36865234 C-392.16838705 295.14478999 -401.11488563 269.53259616 -406.74609375 243.1171875 C-406.94114502 242.20388672 -407.13619629 241.29058594 -407.3371582 240.34960938 C-410.48463652 224.67747206 -411.34431102 209.18934308 -411.30859375 193.2421875 C-411.30771759 192.28096985 -411.30684143 191.3197522 -411.30593872 190.32940674 C-411.19195677 152.22946 -403.09821802 115.61453363 -385.93359375 81.4921875 C-385.55299805 80.73373535 -385.17240234 79.9752832 -384.78027344 79.19384766 C-372.56989419 55.03979721 -356.52657205 34.10405035 -337.93359375 14.4921875 C-336.86625 13.36103516 -336.86625 13.36103516 -335.77734375 12.20703125 C-330.55031899 6.81933974 -324.81683677 2.1429725 -318.93359375 -2.5078125 C-317.94488281 -3.301875 -316.95617187 -4.0959375 -315.9375 -4.9140625 C-287.57458625 -27.29279095 -254.87846283 -42.62198301 -219.93359375 -51.5078125 C-218.74121094 -51.81332031 -217.54882812 -52.11882813 -216.3203125 -52.43359375 C-212.87062259 -53.23920996 -209.42267815 -53.89466796 -205.93359375 -54.5078125 C-204.88461914 -54.71083984 -204.88461914 -54.71083984 -203.81445312 -54.91796875 C-132.59878829 -68.32753414 -54.8661818 -46.9029144 0 0 Z " fill="#FEF200" transform="translate(410.93359375,57.5078125)"/>
<path d="M0 0 C0.36313597 3.00884092 0.61247581 5.08419634 0 8 C-2.48151767 11.0546766 -5.49211121 13.2460556 -9 15 C-9 15.99 -9 16.98 -9 18 C-6.40921161 19.79165193 -6.40921161 19.79165193 -3.1875 21.4375 C0.78177303 23.55729097 3.58633503 25.14660504 6 29 C4.80375 29.185625 3.6075 29.37125 2.375 29.5625 C-6.69389496 31.58578195 -18.01649443 36.67020568 -24 44 C-25.73068271 47.454817 -25.73068271 47.454817 -27 51 C-27.66 51.969375 -28.32 52.93875 -29 53.9375 C-33.3594715 60.61294074 -34.50840327 67.08895499 -35.125 74.875 C-35.27009915 76.56018661 -35.41838006 78.24510322 -35.5703125 79.9296875 C-35.62977051 80.66429199 -35.68922852 81.39889648 -35.75048828 82.15576172 C-36 84 -36 84 -37 86 C-35.515 86.495 -35.515 86.495 -34 87 C-33.078125 89.58984375 -33.078125 89.58984375 -32.25 92.9375 C-28.39687807 106.09274837 -20.24716122 113.74625297 -8.44921875 120.44921875 C-6.65986219 121.35502091 -4.8341563 122.18873856 -3 123 C-4.17316928 126.51950783 -4.84484507 126.80109113 -7.9296875 128.62890625 C-9.12271484 129.34530273 -9.12271484 129.34530273 -10.33984375 130.07617188 C-11.17644531 130.56666016 -12.01304687 131.05714844 -12.875 131.5625 C-14.51840915 132.54266704 -16.16164531 133.5231242 -17.8046875 134.50390625 C-18.90272705 135.15081421 -18.90272705 135.15081421 -20.02294922 135.81079102 C-21.71142523 136.82642039 -23.36053272 137.90702181 -25 139 C-26.9375 138.6875 -26.9375 138.6875 -29 138 C-31.05925139 137.27617533 -31.05925139 137.27617533 -33 137 C-35.34263547 138.90645401 -35.34263547 138.90645401 -35.23046875 142.1875 C-35.21628906 143.445625 -35.20210938 144.70375 -35.1875 146 C-35.18105469 147.258125 -35.17460937 148.51625 -35.16796875 149.8125 C-35.2183004 152.89633791 -35.2183004 152.89633791 -34 155 C-33.91599471 156.59447464 -33.89272533 158.19240545 -33.90234375 159.7890625 C-33.90717773 161.20058594 -33.90717773 161.20058594 -33.91210938 162.640625 C-33.92467773 164.11789062 -33.92467773 164.11789062 -33.9375 165.625 C-33.94201172 166.61757813 -33.94652344 167.61015625 -33.95117188 168.6328125 C-33.96297855 171.0886016 -33.979446 173.54427104 -34 176 C-32.02 176.99 -30.04 177.98 -28 179 C-28.33 179.66 -28.66 180.32 -29 181 C-29.99 181 -30.98 181 -32 181 C-32.33 181.99 -32.66 182.98 -33 184 C-35.32095747 185.45352892 -37.74292176 186.51553673 -40.23046875 187.66015625 C-42.95878812 188.89748848 -42.95878812 188.89748848 -45.11328125 190.43359375 C-53.90492701 196.10717868 -64.96311855 194.42796989 -75 194 C-73.39908233 190.54859024 -71.932864 188.9627194 -68.8125 186.75 C-64.92731691 183.83921586 -61.86649398 180.77930073 -58.76953125 177.05859375 C-56.21523425 174.08703852 -53.41381674 171.38945174 -50.6015625 168.6640625 C-48.91371276 167.07577267 -48.91371276 167.07577267 -48 165 C-54.58983618 167.30143953 -60.22018884 170.25134306 -66.0390625 174.08984375 C-69.73352986 176.47321386 -73.53314336 178.63793907 -77.3659668 180.79003906 C-80.7798663 182.71323187 -84.15200453 184.68784751 -87.49609375 186.73046875 C-88.25519043 187.19026123 -89.01428711 187.65005371 -89.79638672 188.1237793 C-91.27866783 189.02397523 -92.75582241 189.93268135 -94.22705078 190.85083008 C-100.76201574 194.79739077 -100.76201574 194.79739077 -105 194 C-107.01953125 193.046875 -107.01953125 193.046875 -108.8125 191.75 C-109.41707031 191.33234375 -110.02164063 190.9146875 -110.64453125 190.484375 C-112 189 -112 189 -112 185 C-110.375 183.53515625 -110.375 183.53515625 -108 182.0625 C-102.24378768 178.27984619 -97.00287508 174.01349242 -91.7109375 169.61938477 C-88.74789317 167.17421441 -85.91589794 164.94787628 -82.640625 162.91796875 C-79.62014156 160.7240969 -79.22704519 159.42835374 -78 156 C-75.87109375 153.61328125 -75.87109375 153.61328125 -73.4375 151.3125 C-70.30453441 148.46343331 -70.30453441 148.46343331 -68 145 C-69.41875765 145.76697796 -70.83491452 146.53876778 -72.25 147.3125 C-73.43335938 147.95638672 -73.43335938 147.95638672 -74.640625 148.61328125 C-76.89727134 149.9396214 -78.93998597 151.38884224 -81 153 C-85.18068503 151.48235407 -87.16516272 148.44276812 -89.625 144.9375 C-92.26265159 140.87985925 -92.26265159 140.87985925 -96 138 C-95.42437172 134.66135596 -94.40936384 133.30897368 -92 131 C-91.67 130.01 -91.34 129.02 -91 128 C-91.99 128.598125 -92.98 129.19625 -94 129.8125 C-96.54537268 131.35032933 -98.89497421 132.3170873 -101.7265625 133.3203125 C-106.32617444 135.0077221 -110.25824564 137.43626289 -114.375 140.0625 C-115.94637319 141.03894661 -117.51934039 142.01283187 -119.09375 142.984375 C-119.89683594 143.48001953 -120.69992188 143.97566406 -121.52734375 144.48632812 C-125.61095341 146.98616816 -129.72458129 149.42535051 -133.875 151.8125 C-134.62958496 152.26310791 -135.38416992 152.71371582 -136.16162109 153.17797852 C-137.22243896 153.78017212 -137.22243896 153.78017212 -138.3046875 154.39453125 C-139.2325708 154.93364136 -139.2325708 154.93364136 -140.17919922 155.48364258 C-142 156 -142 156 -144.12158203 155.27612305 C-146.94620155 153.357188 -147.77036218 151.13557644 -149 148 C-149.1875 145.125 -149.1875 145.125 -149 143 C-148.05125 142.9175 -147.1025 142.835 -146.125 142.75 C-145.09375 142.5025 -144.0625 142.255 -143 142 C-142.28921256 140.68965522 -141.62532946 139.35321295 -141 138 C-133.05047548 130.59248851 -124.12413196 123.88718453 -115.25 117.625 C-112.205485 115.37862424 -111.20922558 113.62767675 -110 110 C-108.37897032 108.28891311 -106.70496537 106.62746694 -105 105 C-102.95965402 102.70041006 -100.97537259 100.35551302 -99 98 C-100.13888672 98.75796875 -100.13888672 98.75796875 -101.30078125 99.53125 C-102.79158203 100.50578125 -102.79158203 100.50578125 -104.3125 101.5 C-105.29863281 102.1496875 -106.28476563 102.799375 -107.30078125 103.46875 C-110 105 -110 105 -113 105 C-114.33333333 99.66666667 -115.66666667 94.33333333 -117 89 C-117.21011719 88.30390625 -117.42023438 87.6078125 -117.63671875 86.890625 C-118 85 -118 85 -116.78515625 82.859375 C-116.21667969 82.16328125 -115.64820313 81.4671875 -115.0625 80.75 C-114.49660156 80.04359375 -113.93070313 79.3371875 -113.34765625 78.609375 C-112.68056641 77.81273437 -112.68056641 77.81273437 -112 77 C-116.11660618 78.25684661 -119.64522142 79.78182386 -123.34375 81.9765625 C-124.33681152 82.56163574 -125.32987305 83.14670898 -126.35302734 83.74951172 C-127.39152832 84.36842285 -128.4300293 84.98733398 -129.5 85.625 C-131.64824685 86.89094858 -133.79668361 88.15657495 -135.9453125 89.421875 C-136.98204102 90.03482422 -138.01876953 90.64777344 -139.08691406 91.27929688 C-142.83938629 93.49580914 -146.60037185 95.69645916 -150.375 97.875 C-151.43460938 98.49117188 -152.49421875 99.10734375 -153.5859375 99.7421875 C-156 101 -156 101 -158 101 C-159.06447989 89.61175486 -159.06447989 89.61175486 -156.6171875 85.90625 C-154.11845373 83.78611226 -151.47157693 82.26802972 -148.62890625 80.65234375 C-145.56190064 78.72464186 -142.89105262 76.52607176 -140.125 74.1875 C-139.6005127 73.74462646 -139.07602539 73.30175293 -138.53564453 72.84545898 C-137.02184796 71.56590153 -135.51085587 70.2830284 -134 69 C-133.25234375 68.37867188 -132.5046875 67.75734375 -131.734375 67.1171875 C-129.04550143 64.86892767 -126.95745633 62.93618449 -125 60 C-124.34 60 -123.68 60 -123 60 C-123 59.34 -123 58.68 -123 58 C-121.3563186 56.31066078 -119.6857124 54.64740076 -118 53 C-116.64444707 51.35135455 -115.30368347 49.68996005 -114 48 C-118.67533173 48.44955113 -121.38056955 49.02689641 -125 52 C-125.99 52 -126.98 52 -128 52 C-128.02707031 52.5878125 -128.05414063 53.175625 -128.08203125 53.78125 C-129.50214895 57.21370469 -132.46853802 58.06278762 -135.6875 59.5 C-139.40287045 61.21118008 -142.95800561 62.88943178 -146.33203125 65.21875 C-149 67 -149 67 -151 67 C-150.39088455 62.44033576 -148.54096522 58.74362441 -146.375 54.75 C-146.01599609 54.08540771 -145.65699219 53.42081543 -145.28710938 52.73608398 C-137.8350278 39.23986482 -127.40461791 29.92683744 -115 21 C-114.10539062 20.33355469 -113.21078125 19.66710937 -112.2890625 18.98046875 C-108.04587466 15.87967764 -104.11417885 13.29341995 -99.08203125 11.703125 C-96.75975611 10.95379341 -96.75975611 10.95379341 -93.66796875 9.52734375 C-74.69799376 1.62823808 -47.52781276 2.08290412 -28.3359375 8.90625 C-25.18412832 9.93963006 -23.25327477 10.49599107 -20 10 C-17.20861124 8.60130894 -17.20861124 8.60130894 -14.5 6.6875 C-13.5821875 6.07261719 -12.664375 5.45773438 -11.71875 4.82421875 C-10.37296875 3.92123047 -10.37296875 3.92123047 -9 3 C-5.44064654 0.62531087 -4.41685329 0 0 0 Z " fill="#F7AA0C" transform="translate(208,148)"/>
<path d="M0 0 C1.07733398 0.00725098 2.15466797 0.01450195 3.26464844 0.02197266 C14.40055591 0.21203341 25.47278487 1.21411395 35.875 5.375 C35.875 12.635 35.875 19.895 35.875 27.375 C31.875 26.375 31.875 26.375 28.25 24.9375 C18.72087356 21.36407758 6.25102264 18.73035652 -3.40234375 22.734375 C-7.04639358 24.93021564 -9.23066238 27.58632475 -11.125 31.375 C-11.71374449 34.46590858 -11.626587 36.51716217 -10.01953125 39.265625 C-3.30727523 47.6849486 6.63597033 52.2462373 16.01367188 57.09057617 C30.15721027 64.39705255 44.26485835 72.10690339 49.4921875 88.28515625 C51.97828863 97.66763382 52.23060224 107.58837383 47.875 116.375 C47.60816406 117.01695312 47.34132813 117.65890625 47.06640625 118.3203125 C41.31049471 131.36704531 30.58981702 137.26414218 17.875 142.375 C-4.3903119 148.71787314 -28.59698791 145.98168351 -49.125 135.375 C-52.14175502 132.35824498 -51.10258386 123.45797954 -51.1875 119.35546875 C-51.1875 117.02768982 -51.17133965 114.70228033 -51.125 112.375 C-49.949375 112.766875 -48.77375 113.15875 -47.5625 113.5625 C-46.74652344 113.83320313 -45.93054688 114.10390625 -45.08984375 114.3828125 C-42.89146425 115.11850208 -40.69668602 115.86497179 -38.50390625 116.6171875 C-25.02889323 121.22593321 -10.16333545 125.89410365 3.875 120.375 C7.47493157 118.17935208 10.65742494 115.51475521 11.875 111.375 C12.3144221 107.4202011 12.16420538 105.00599356 10.5 101.375 C3.17247716 93.00068818 -7.30634984 88.61751768 -17.203125 84.00195312 C-31.51016525 77.11439721 -43.30361902 67.04416994 -49.02734375 52.00390625 C-52.22626086 42.55457045 -52.16770778 33.5746601 -48.125 24.375 C-41.84248146 13.40088492 -33.48934809 6.36913483 -21.4074707 2.50610352 C-14.16863667 0.60004013 -7.47268429 -0.10028073 0 0 Z " fill="#0A71BF" transform="translate(231.125,183.625)"/>
<path d="M0 0 C0.95018005 0.00359528 1.90036011 0.00719055 2.8793335 0.01089478 C4.37184883 0.01067574 4.37184883 0.01067574 5.89451599 0.01045227 C9.20059348 0.01115186 12.5066154 0.01894637 15.81268311 0.02676392 C18.09811879 0.02862793 20.38355487 0.03005191 22.66899109 0.03105164 C28.69751073 0.03487809 34.72600644 0.04470947 40.7545166 0.05575562 C46.90085527 0.06596699 53.04719778 0.07054867 59.19354248 0.07559204 C71.26321447 0.08633162 83.33286868 0.10340957 95.40252686 0.12442017 C95.4972876 4.08591153 94.88030723 6.45889376 93.40252686 10.12442017 C92.76804774 12.95977122 92.30520901 15.81952751 91.84002686 18.68692017 C90.41680215 27.23356701 90.41680215 27.23356701 89.40252686 31.12442017 C86.98162668 30.17729606 84.59668459 29.21796889 82.25408936 28.08926392 C77.04065163 25.68376546 72.26213446 24.77218861 66.55096436 24.50332642 C65.86091309 24.46437256 65.17086182 24.4254187 64.4598999 24.38528442 C62.77449375 24.29116434 61.08854833 24.20678559 59.40252686 24.12442017 C59.46382208 37.39865173 59.5409893 50.67268805 59.63824177 63.94670773 C59.68290846 70.11083091 59.72217297 76.27488857 59.7489624 82.43911743 C59.77503196 88.39147419 59.81546077 94.34357828 59.86571312 100.29577827 C59.88235703 102.56304334 59.89388668 104.83035208 59.90014076 107.0976696 C59.90980855 110.28125168 59.9379008 113.4641909 59.97015381 116.64761353 C59.96871872 117.57838211 59.96728363 118.5091507 59.96580505 119.46812439 C60.05223832 125.52782562 61.15354296 130.50787275 63.40252686 136.12442017 C64.39252686 138.59942017 64.39252686 138.59942017 65.40252686 141.12442017 C48.57252686 141.12442017 31.74252686 141.12442017 14.40252686 141.12442017 C15.40252686 137.12442017 15.40252686 137.12442017 16.35375977 135.1497345 C21.06149344 125.0004492 20.00777383 113.66960286 20.01190186 102.73770142 C20.02689908 100.46654591 20.04362944 98.19540126 20.06201172 95.92427063 C20.10552391 89.97810335 20.1256486 84.03208317 20.14074707 78.08578491 C20.16037639 72.00547649 20.2023398 65.92532557 20.24237061 59.84512329 C20.31749799 47.93827102 20.36789517 36.03145431 20.40252686 24.12442017 C17.99746623 24.26856387 15.5928047 24.41704683 13.18817139 24.56802368 C12.51103592 24.60815834 11.83390045 24.648293 11.13624573 24.68964386 C6.26474053 25.00023821 1.95270323 25.7004677 -2.72247314 27.06192017 C-4.52071533 27.57045532 -4.52071533 27.57045532 -6.35528564 28.08926392 C-9.16711033 28.98701517 -11.87819423 29.98027073 -14.59747314 31.12442017 C-14.00561911 26.32857205 -13.04971518 21.87490122 -11.65997314 17.24942017 C-10.44370796 13.12028799 -9.29952002 9.02378983 -8.40997314 4.81192017 C-7.11717549 -1.05539228 -5.67897712 0.00908157 0 0 Z " fill="#0872BE" transform="translate(290.59747314453125,185.87557983398438)"/>
<path d="M0 0 C17.16 0 34.32 0 52 0 C52 0.99 52 1.98 52 3 C51.34 3 50.68 3 50 3 C45.76150344 16.19844122 45.44085649 28.70978635 45.5390625 42.48828125 C45.54145328 44.72592563 45.54235091 46.96357205 45.5418396 49.20121765 C45.54494679 53.86157024 45.56135561 58.52161066 45.58837891 63.18188477 C45.62245439 69.130709 45.63000328 75.07919339 45.62848854 81.02810383 C45.62903423 85.63770236 45.64003164 90.24722786 45.65449142 94.85680199 C45.66081567 97.0498722 45.66478797 99.24295061 45.66627884 101.43602943 C45.67065315 104.50477623 45.68823904 107.57317484 45.70947266 110.6418457 C45.70856628 111.53093628 45.70765991 112.42002686 45.70672607 113.33605957 C45.80134939 122.76783686 46.88135881 130.98079547 52 139 C52 139.66 52 140.32 52 141 C34.84 141 17.68 141 0 141 C1.30590542 137.73523645 2.37692165 135.30498181 4.09463501 132.3923645 C6.67714754 127.25634108 6.54766403 122.37592311 6.48583984 116.72216797 C6.49153488 115.06701172 6.49153488 115.06701172 6.49734497 113.37841797 C6.50472408 109.74938069 6.48340644 106.12115301 6.4609375 102.4921875 C6.45855172 99.96208795 6.45764804 97.43198661 6.4581604 94.90188599 C6.45503704 89.60780857 6.43899562 84.31400901 6.41162109 79.02001953 C6.38014315 72.91010466 6.36962634 66.80044161 6.3710922 60.6904515 C6.37231512 54.79577169 6.3618663 48.90116396 6.34550858 43.00650406 C6.33914849 40.50507219 6.33520353 38.00363297 6.33372116 35.50219345 C6.32938186 32.00768241 6.3118677 28.51348625 6.29052734 25.01904297 C6.29143372 23.98719879 6.29234009 22.95535461 6.29327393 21.89224243 C6.2205375 13.74112532 4.62884802 8.7889771 0 2 C0 1.34 0 0.68 0 0 Z " fill="#0571C0" transform="translate(396,186)"/>
<path d="M0 0 C2.83901884 1.48122722 3.7770172 3.48093813 5.38671875 6.234375 C5.71349609 6.78851074 6.04027344 7.34264648 6.37695312 7.91357422 C7.12337231 9.18649764 7.8631199 10.46334689 8.59765625 11.74316406 C10.07382172 14.30967904 11.57437918 16.86131423 13.07421875 19.4140625 C14.17964102 21.31176916 15.28380827 23.21020743 16.38671875 25.109375 C16.92748047 26.03395508 17.46824219 26.95853516 18.02539062 27.91113281 C18.52619141 28.78350586 19.02699219 29.65587891 19.54296875 30.5546875 C19.99478516 31.33602051 20.44660156 32.11735352 20.91210938 32.92236328 C21.88671875 34.984375 21.88671875 34.984375 21.88671875 37.984375 C21.09652344 38.43425781 20.30632812 38.88414062 19.4921875 39.34765625 C18.36425781 39.99089844 17.23632812 40.63414062 16.07421875 41.296875 C15.46271973 41.64355225 14.8512207 41.99022949 14.22119141 42.34741211 C10.40657216 44.51740792 6.62573021 46.73410491 2.8671875 49 C2.02067627 49.50490967 1.17416504 50.00981934 0.30200195 50.5300293 C-1.37599865 51.5319916 -3.04820782 52.54372473 -4.71411133 53.56567383 C-5.48779053 54.02482178 -6.26146973 54.48396973 -7.05859375 54.95703125 C-7.74453613 55.37218994 -8.43047852 55.78734863 -9.13720703 56.21508789 C-11.11328125 56.984375 -11.11328125 56.984375 -13.25341797 56.81811523 C-15.11328125 55.984375 -15.11328125 55.984375 -16.92578125 52.671875 C-18.38604748 48.13736407 -18.38604748 48.13736407 -17.11328125 44.984375 C-15.65934626 43.01647811 -14.13023764 41.10302763 -12.55078125 39.234375 C-11.72449219 38.24953125 -10.89820312 37.2646875 -10.046875 36.25 C-9.40878906 35.50234375 -8.77070312 34.7546875 -8.11328125 33.984375 C-8.87253906 34.4896875 -9.63179687 34.995 -10.4140625 35.515625 C-11.90486328 36.49015625 -11.90486328 36.49015625 -13.42578125 37.484375 C-14.90498047 38.45890625 -14.90498047 38.45890625 -16.4140625 39.453125 C-19.11328125 40.984375 -19.11328125 40.984375 -22.11328125 40.984375 C-23.44661458 35.65104167 -24.77994792 30.31770833 -26.11328125 24.984375 C-26.42761108 23.93262085 -26.42761108 23.93262085 -26.74829102 22.85961914 C-27.11328125 20.984375 -27.11328125 20.984375 -25.92578125 19.08984375 C-25.32765625 18.45691406 -24.72953125 17.82398438 -24.11328125 17.171875 C-23.13101563 16.12966797 -23.13101563 16.12966797 -22.12890625 15.06640625 C-21.13117188 14.03580078 -21.13117188 14.03580078 -20.11328125 12.984375 C-19.30117187 12.06205078 -19.30117187 12.06205078 -18.47265625 11.12109375 C-14.01861705 6.24543433 -6.93374263 -0.05126612 0 0 Z " fill="#0A6FBE" transform="translate(117.11328125,212.015625)"/>
<path d="M0 0 C1.359375 1.765625 1.359375 1.765625 2.75 4.25 C3.53310547 5.62285156 3.53310547 5.62285156 4.33203125 7.0234375 C5.15767578 8.49683594 5.15767578 8.49683594 6 10 C7.14291692 11.96003683 8.28880385 13.91834453 9.4375 15.875 C10.01371094 16.87273437 10.58992188 17.87046875 11.18359375 18.8984375 C12.44050773 21.04465191 13.72644949 23.17403161 15.03515625 25.2890625 C16.00775391 26.87847656 16.00775391 26.87847656 17 28.5 C17.598125 29.4590625 18.19625 30.418125 18.8125 31.40625 C20 34 20 34 19.87451172 35.96435547 C18.62765869 38.86671743 16.91930205 39.61301728 14.1953125 41.1640625 C13.21949219 41.72867188 12.24367187 42.29328125 11.23828125 42.875 C10.21089844 43.4525 9.18351562 44.03 8.125 44.625 C6.1065647 45.7834951 4.08832682 46.94233425 2.0703125 48.1015625 C0.72090576 48.86460693 0.72090576 48.86460693 -0.65576172 49.64306641 C-2.47644331 50.69694563 -4.24961793 51.83307862 -6 53 C-9.78191042 52.90047604 -10.97021909 52.02713372 -13.8125 49.4375 C-14.534375 48.633125 -15.25625 47.82875 -16 47 C-14.60366893 43.81440048 -12.95442507 41.76056155 -10.4375 39.375 C-7.85984611 36.95478041 -7.85984611 36.95478041 -6 34 C-7.41875765 34.76697796 -8.83491452 35.53876778 -10.25 36.3125 C-11.03890625 36.74175781 -11.8278125 37.17101562 -12.640625 37.61328125 C-14.89727134 38.9396214 -16.93998597 40.38884224 -19 42 C-23.18068503 40.48235407 -25.16516272 37.44276812 -27.625 33.9375 C-30.26265159 29.87985925 -30.26265159 29.87985925 -34 27 C-33.09166451 22.14700581 -30.33314274 19.71777251 -26.9375 16.3125 C-26.32350342 15.69616699 -25.70950684 15.07983398 -25.0769043 14.44482422 C-18.93450821 8.53460963 -8.92098353 0 0 0 Z " fill="#0B6FBF" transform="translate(146,259)"/>
<path d="M0 0 C4.03931692 1.6111016 6.90364359 4.89325747 10.046875 7.81640625 C10.81644531 8.46351563 11.58601563 9.110625 12.37890625 9.77734375 C17.87681943 14.64939991 17.87681943 14.64939991 18.359375 17.9609375 C18.04348055 20.62136104 17.28334634 23.09617328 16.44921875 25.63671875 C15.91929473 27.95892251 15.91929473 27.95892251 16.328125 30.91796875 C16.58606086 35.07257854 16.45445599 37.87348359 15.046875 41.81640625 C9.17966306 47.55362607 0.63171581 50.96450611 -6.953125 53.81640625 C-10.38197136 49.99192377 -12.64267579 45.84031031 -15.02734375 41.3359375 C-16.54163061 38.51817133 -18.15155969 35.7658436 -19.78515625 33.015625 C-20.28523193 32.17016113 -20.78530762 31.32469727 -21.30053711 30.45361328 C-22.30894709 28.75396621 -23.32396584 27.05822067 -24.34594727 25.36669922 C-24.81186279 24.5779541 -25.27777832 23.78920898 -25.7578125 22.9765625 C-26.18046387 22.27152588 -26.60311523 21.56648926 -27.03857422 20.84008789 C-27.953125 18.81640625 -27.953125 18.81640625 -27.953125 14.81640625 C-27.27209717 14.43307129 -26.59106934 14.04973633 -25.8894043 13.65478516 C-22.80579567 11.91820031 -19.72320027 10.17982467 -16.640625 8.44140625 C-15.56876953 7.838125 -14.49691406 7.23484375 -13.39257812 6.61328125 C-12.36455078 6.03320312 -11.33652344 5.453125 -10.27734375 4.85546875 C-9.32947998 4.32131348 -8.38161621 3.7871582 -7.4050293 3.23681641 C-1.56389346 -0.14700599 -1.56389346 -0.14700599 0 0 Z " fill="#0A6FBE" transform="translate(155.953125,189.18359375)"/>
<path d="M0 0 C1.30859375 2.07421875 1.30859375 2.07421875 2.4375 4.6875 C5.57752064 11.89751255 9.95823271 16.39072275 16.4375 20.6875 C16.98470703 21.06455078 17.53191406 21.44160156 18.09570312 21.83007812 C21.59766731 24.20478283 25.1808291 26.18546179 29 28 C27.82683072 31.51950783 27.15515493 31.80109113 24.0703125 33.62890625 C23.27496094 34.10650391 22.47960937 34.58410156 21.66015625 35.07617188 C20.82355469 35.56666016 19.98695313 36.05714844 19.125 36.5625 C17.48159085 37.54266704 15.83835469 38.5231242 14.1953125 39.50390625 C13.46328613 39.93517822 12.73125977 40.3664502 11.97705078 40.81079102 C10.28857477 41.82642039 8.63946728 42.90702181 7 44 C1.95718217 43.40740785 -2.25993129 40.24655382 -6 37 C-8.52119231 33.65160545 -10.45011727 30.09130692 -12.375 26.375 C-13.38079685 24.50672596 -14.38853862 22.63949737 -15.3984375 20.7734375 C-16.04304932 19.54246338 -16.04304932 19.54246338 -16.70068359 18.28662109 C-17.95002293 15.95498307 -17.95002293 15.95498307 -19.66259766 13.88916016 C-21 12 -21 12 -21 9 C-18.50997367 6.88031027 -15.57927075 5.37855584 -12.75 3.75 C-11.97269531 3.27820313 -11.19539062 2.80640625 -10.39453125 2.3203125 C-9.64042969 1.87945312 -8.88632813 1.43859375 -8.109375 0.984375 C-7.41811523 0.57928711 -6.72685547 0.17419922 -6.01464844 -0.24316406 C-3.55138869 -1.16852824 -2.41109558 -0.99572603 0 0 Z " fill="#1071C0" transform="translate(176,243)"/>
<path d="M0 0 C0.66 0 1.32 0 2 0 C2 0.66 2 1.32 2 2 C2.721875 2.12890625 3.44375 2.2578125 4.1875 2.390625 C11.38533693 3.95015633 17.09360416 6.39269047 22 12 C23.64864545 13.35555293 25.31003995 14.69631653 27 16 C25.60332244 20.88837146 23.65571105 25.34428895 20 29 C8.33373294 30.76397165 -1.44459177 26.41051507 -12 22 C-12 21.34 -12 20.68 -12 20 C-13.093125 19.731875 -14.18625 19.46375 -15.3125 19.1875 C-18.7850009 18.069237 -19.71827034 17.56255793 -22 15 C-19.4378513 13.39526997 -16.87529445 11.79119818 -14.3125 10.1875 C-13.59126953 9.73568359 -12.87003906 9.28386719 -12.12695312 8.81835938 C-11.42119141 8.37685547 -10.71542969 7.93535156 -9.98828125 7.48046875 C-9.3020166 7.05040527 -8.61575195 6.6203418 -7.90869141 6.17724609 C-6.30506248 5.18815698 -4.67658405 4.23951659 -3.04296875 3.30078125 C-0.86615557 2.1608808 -0.86615557 2.1608808 0 0 Z " fill="#F3AD0D" transform="translate(205,271)"/>
<path d="M0 0 C0.02916504 0.55985596 0.05833008 1.11971191 0.08837891 1.6965332 C0.23754826 4.23794679 0.43072936 6.7741525 0.625 9.3125 C0.67011719 10.19357422 0.71523437 11.07464844 0.76171875 11.98242188 C0.96947681 14.46607507 1.20464432 16.63612098 2 19 C4.91039177 21.20908713 4.91039177 21.20908713 8 22 C7.67 22.66 7.34 23.32 7 24 C6.01 24 5.02 24 4 24 C3.505 25.485 3.505 25.485 3 27 C0.67904253 28.45352892 -1.74292176 29.51553673 -4.23046875 30.66015625 C-6.95878812 31.89748848 -6.95878812 31.89748848 -9.11328125 33.43359375 C-17.90492701 39.10717868 -28.96311855 37.42796989 -39 37 C-37.39908233 33.54859024 -35.932864 31.9627194 -32.8125 29.75 C-29.08784389 26.94915275 -26.19524871 24.08242576 -23.22265625 20.51953125 C-20.05980071 16.93422048 -16.69117439 13.56859407 -13.3125 10.1875 C-12.65813965 9.52878906 -12.0037793 8.87007813 -11.32958984 8.19140625 C-10.70133301 7.56492187 -10.07307617 6.9384375 -9.42578125 6.29296875 C-8.86286377 5.7311792 -8.29994629 5.16938965 -7.7199707 4.59057617 C-2.75594781 0 -2.75594781 0 0 0 Z " fill="#F8AF07" transform="translate(172,305)"/>
<path d="M0 0 C3.05324366 1.62203569 4.20968783 4.15324273 6 7.0625 C6.763125 7.949375 7.52625 8.83625 8.3125 9.75 C8.869375 10.513125 9.42625 11.27625 10 12.0625 C8.25708733 17.29123801 2.76685007 19.17125015 -1.8125 21.875 C-2.82376953 22.49826172 -3.83503906 23.12152344 -4.87695312 23.76367188 C-5.85212891 24.34310547 -6.82730469 24.92253906 -7.83203125 25.51953125 C-8.72639893 26.05553955 -9.6207666 26.59154785 -10.54223633 27.14379883 C-13 28.0625 -13 28.0625 -15.20288086 27.3293457 C-17.27990432 25.86518666 -18.98738178 24.26791122 -20.75 22.4375 C-21.36359375 21.80585938 -21.9771875 21.17421875 -22.609375 20.5234375 C-23.06828125 20.04132813 -23.5271875 19.55921875 -24 19.0625 C-22.87078623 15.67485869 -22.10310873 15.11007915 -19.32421875 13.03125 C-18.57849609 12.46792969 -17.83277344 11.90460938 -17.06445312 11.32421875 C-15.88786133 10.45216797 -15.88786133 10.45216797 -14.6875 9.5625 C-13.52831055 8.69044922 -13.52831055 8.69044922 -12.34570312 7.80078125 C-10.23527301 6.21478304 -8.118422 4.63779659 -6 3.0625 C-5.29721924 2.50626953 -4.59443848 1.95003906 -3.87036133 1.37695312 C-2 0.0625 -2 0.0625 0 0 Z " fill="#0B70C9" transform="translate(105,292.9375)"/>
<path d="M0 0 C0.83917969 0.30808594 1.67835938 0.61617187 2.54296875 0.93359375 C4.36721614 1.60840385 6.18458948 2.30176519 8 3 C6.2575727 8.22728189 0.71576544 10.07157349 -3.875 12.75 C-4.89464844 13.36488281 -5.91429687 13.97976562 -6.96484375 14.61328125 C-8.43244141 15.47759766 -8.43244141 15.47759766 -9.9296875 16.359375 C-10.82929199 16.89014648 -11.72889648 17.42091797 -12.65576172 17.96777344 C-15 19 -15 19 -18 18 C-19.25854492 16.28173828 -19.25854492 16.28173828 -20.48046875 14.0703125 C-20.92197266 13.27496094 -21.36347656 12.47960937 -21.81835938 11.66015625 C-22.49608398 10.40525391 -22.49608398 10.40525391 -23.1875 9.125 C-23.65091797 8.29613281 -24.11433594 7.46726563 -24.59179688 6.61328125 C-28 0.39920839 -28 0.39920839 -28 -3 C-17.53643597 -4.78103218 -9.99725722 -3.77433662 0 0 Z " fill="#0B6FC6" transform="translate(138,177)"/>
<path d="M0 0 C2.9921875 1.41015625 2.9921875 1.41015625 5.875 3.0625 C6.84179688 3.61035156 7.80859375 4.15820312 8.8046875 4.72265625 C9.52914062 5.14417969 10.25359375 5.56570312 11 6 C11 6.66 11 7.32 11 8 C10.32195312 8.32871094 9.64390625 8.65742188 8.9453125 8.99609375 C1.61541414 12.74226064 -4.12085167 17.26113504 -10 23 C-13.71045247 21.42219077 -16.29906384 19.09296752 -19.25 16.375 C-20.14203125 15.55773437 -21.0340625 14.74046875 -21.953125 13.8984375 C-22.62859375 13.27195313 -23.3040625 12.64546875 -24 12 C-22.46548207 7.39644622 -18.86368233 6.13423699 -14.8125 3.75 C-14.05646484 3.27820313 -13.30042969 2.80640625 -12.52148438 2.3203125 C-8.0077993 -0.35736364 -5.22838736 -1.8346491 0 0 Z " fill="#0E6ECA" transform="translate(191,172)"/>
<path d="M0 0 C0.99 0.33 1.98 0.66 3 1 C3.984375 3.328125 3.984375 3.328125 4.75 6.25 C5.01296875 7.20390625 5.2759375 8.1578125 5.546875 9.140625 C6.03844157 12.24257955 5.9484733 14.01635164 5 17 C3.11401367 18.65332031 3.11401367 18.65332031 0.66796875 20.078125 C-0.21310547 20.59890625 -1.09417969 21.1196875 -2.00195312 21.65625 C-2.92943359 22.1821875 -3.85691406 22.708125 -4.8125 23.25 C-5.72837891 23.79140625 -6.64425781 24.3328125 -7.58789062 24.890625 C-14.97571883 29.19525906 -14.97571883 29.19525906 -19 30 C-21.14421969 17.92201253 -21.14421969 17.92201253 -18.70703125 13.828125 C-16.58062451 11.9867006 -14.36856642 10.51858537 -12 9 C-10.42835315 7.75891363 -8.85682167 6.5176667 -7.28979492 5.27075195 C-4.913426 3.38609551 -2.58458047 1.59286737 0 0 Z " fill="#1175C2" transform="translate(80,243)"/>
<path d="M0 0 C3.99047907 1.47922931 5.1237645 3.51792286 7 7.25 C8.66443162 10.48568895 10.29198595 13.56012608 12.4375 16.5 C12.953125 17.325 13.46875 18.15 14 19 C12.75794904 22.72615287 11.72872886 23.02494476 8.37890625 24.91796875 C7.44369141 25.44970703 6.50847656 25.98144531 5.54492188 26.52929688 C4.56072266 27.07650391 3.57652344 27.62371094 2.5625 28.1875 C1.58216797 28.74630859 0.60183594 29.30511719 -0.40820312 29.88085938 C-7.71603136 34 -7.71603136 34 -10 34 C-11.06722582 24.78458973 -11.06722582 24.78458973 -8.58203125 20.62890625 C-6.80840779 18.62838 -4.97658688 16.79882103 -3 15 C-2.195625 14.175 -1.39125 13.35 -0.5625 12.5 C-0.046875 12.005 0.46875 11.51 1 11 C0.071875 11.495 -0.85625 11.99 -1.8125 12.5 C-5 14 -5 14 -8 14 C-6.6744419 10.37723685 -5.05653045 7.36494652 -2.875 4.1875 C-2.33617188 3.39730469 -1.79734375 2.60710937 -1.2421875 1.79296875 C-0.83226563 1.20128906 -0.42234375 0.60960937 0 0 Z " fill="#0870CC" transform="translate(98,181)"/>
<path d="M0 0 C0.02916504 0.55985596 0.05833008 1.11971191 0.08837891 1.6965332 C0.23754826 4.23794679 0.43072936 6.7741525 0.625 9.3125 C0.67011719 10.19357422 0.71523437 11.07464844 0.76171875 11.98242188 C0.96947681 14.46607507 1.20464432 16.63612098 2 19 C4.91039177 21.20908713 4.91039177 21.20908713 8 22 C7 24 7 24 4.9375 25.1875 C-3.41566481 27.49794984 -11.38716271 23.14493736 -19 20 C-19 16 -19 16 -17.87011719 14.40014648 C-17.35094727 13.89555908 -16.83177734 13.39097168 -16.296875 12.87109375 C-15.72839844 12.31099609 -15.15992188 11.75089844 -14.57421875 11.17382812 C-13.97222656 10.60083984 -13.37023437 10.02785156 -12.75 9.4375 C-12.16347656 8.86064453 -11.57695312 8.28378906 -10.97265625 7.68945312 C-3.07921533 0 -3.07921533 0 0 0 Z " fill="#1170C3" transform="translate(172,305)"/>
<path d="M0 0 C28.15153143 -0.41277905 28.15153143 -0.41277905 40 2 C40 2.99 40 3.98 40 5 C37.80269616 6.37557241 35.59510062 7.72463252 33.375 9.0625 C32.44880859 9.64741211 32.44880859 9.64741211 31.50390625 10.24414062 C28.48280299 12.04090204 26.61672245 13.00081577 23.046875 12.99609375 C19.09573287 11.70437421 15.54086935 9.94515517 11.875 8 C10.47848834 7.26715168 9.08010445 6.53785774 7.6796875 5.8125 C7.06851074 5.48894531 6.45733398 5.16539062 5.82763672 4.83203125 C3.90780375 3.95802768 2.0570745 3.44943531 0 3 C0 2.01 0 1.02 0 0 Z " fill="#2172BC" transform="translate(133,162)"/>
<path d="M0 0 C7.425 0.99 7.425 0.99 15 2 C15.495 3.485 15.495 3.485 16 5 C12.34267858 6.83181047 8.67274072 8.63683065 5 10.4375 C3.97003906 10.95376953 2.94007813 11.47003906 1.87890625 12.00195312 C-3.86017283 14.79838338 -8.59943284 16.69997341 -15 17 C-15 17.66 -15 18.32 -15 19 C-18.96 19.495 -18.96 19.495 -23 20 C-23 19.34 -23 18.68 -23 18 C-20.63944406 16.10264749 -18.2744489 14.31907191 -15.8125 12.5625 C-15.13896484 12.07201172 -14.46542969 11.58152344 -13.77148438 11.07617188 C-10.96498544 9.0472785 -8.21010351 7.11984984 -5.19921875 5.40234375 C-2.5581883 3.89972874 -2.5581883 3.89972874 0 0 Z " fill="#FEB616" transform="translate(190,331)"/>
<path d="M0 0 C4.61400822 5.60918647 6.57113606 12.76560994 6 20 C6.66 20.33 7.32 20.66 8 21 C7.28972656 21.40992188 6.57945313 21.81984375 5.84765625 22.2421875 C4.92855469 22.78101563 4.00945312 23.31984375 3.0625 23.875 C1.68771484 24.67550781 1.68771484 24.67550781 0.28515625 25.4921875 C-2.10700296 26.79712563 -2.10700296 26.79712563 -3 29 C-4.32 28.67 -5.64 28.34 -7 28 C-6.01 27.34 -5.02 26.68 -4 26 C-4.47332182 21.64543925 -5.33885578 18.04839606 -6.875 13.9375 C-8.25242077 9.58008236 -8.25242077 9.58008236 -7.1875 7.1328125 C-5.875 5.5625 -5.875 5.5625 -3 3 C-2.401875 2.38125 -1.80375 1.7625 -1.1875 1.125 C-0.795625 0.75375 -0.40375 0.3825 0 0 Z " fill="#F0B00C" transform="translate(89,233)"/>
<path d="M0 0 C0.33 0.66 0.66 1.32 1 2 C1.99 2.33 2.98 2.66 4 3 C5.68359375 4.85546875 5.68359375 4.85546875 7.4375 7.1875 C8.0459375 7.99445313 8.654375 8.80140625 9.28125 9.6328125 C11.27243568 12.37521823 13.1712091 15.14708619 15 18 C13.68 18 12.36 18 11 18 C10.67 18.99 10.34 19.98 10 21 C6.9375 22.1875 6.9375 22.1875 4 23 C3.4225 22.113125 2.845 21.22625 2.25 20.3125 C0.3166155 17.40900738 -1.79416131 14.7039313 -4 12 C-4.99 10.68 -5.98 9.36 -7 8 C-4.69 5.36 -2.38 2.72 0 0 Z " fill="#F4AE09" transform="translate(111,284)"/>
<path d="M0 0 C3 1 3 1 4.1875 2.8125 C5 5 5 5 5 9 C4.10539062 9.43570312 3.21078125 9.87140625 2.2890625 10.3203125 C-4.32686432 13.57138445 -10.73130992 16.89264795 -16.9140625 20.93359375 C-19 22 -19 22 -23 22 C-22.10041913 17.01526366 -18.8172619 14.99536341 -15 12 C-13.81896491 11.06776598 -12.63797956 10.13546895 -11.45703125 9.203125 C-8.94819818 7.22595239 -6.43304193 5.25719127 -3.9140625 3.29296875 C-1.88987714 1.72212465 -1.88987714 1.72212465 0 0 Z " fill="#0D72CD" transform="translate(89,268)"/>
<path d="M0 0 C0.33 0.66 0.66 1.32 1 2 C7.6 2 14.2 2 21 2 C15.35806217 7.64193783 10.4383258 11.29384516 2.25 11.4375 C-1.59760434 11.34187241 -4.4886525 10.57252793 -8 9 C-6.4169423 4.7257442 -3.49431596 2.73468206 0 0 Z " fill="#FBAF0D" transform="translate(132,340)"/>
<path d="M0 0 C0.66 0.33 1.32 0.66 2 1 C1.69356566 4.08457656 1.48992129 5.57051819 -0.88598633 7.65332031 C-1.69318115 8.12350586 -2.50037598 8.59369141 -3.33203125 9.078125 C-4.65364258 9.85929687 -4.65364258 9.85929687 -6.00195312 10.65625 C-6.92943359 11.1821875 -7.85691406 11.708125 -8.8125 12.25 C-10.18631836 13.06210937 -10.18631836 13.06210937 -11.58789062 13.890625 C-15.46773457 16.15127697 -18.60997123 17.90249281 -23 19 C-23.33 14.38 -23.66 9.76 -24 5 C-23.01 4.67 -22.02 4.34 -21 4 C-19.9375 6.375 -19.9375 6.375 -19 9 C-19.33 9.66 -19.66 10.32 -20 11 C-18.35 11 -16.7 11 -15 11 C-14.76410156 10.38382812 -14.52820313 9.76765625 -14.28515625 9.1328125 C-12.6642712 6.44283306 -11.33693111 5.98264784 -8.4375 4.875 C-5.00802421 3.74678102 -5.00802421 3.74678102 -3 1 C-2.01 0.67 -1.02 0.34 0 0 Z " fill="#0C71CD" transform="translate(84,254)"/>
<path d="M0 0 C3.9132706 1.56530824 6.13199262 2.64528238 9.3125 5.125 C10.00988281 5.66382813 10.70726562 6.20265625 11.42578125 6.7578125 C11.94527344 7.16773438 12.46476563 7.57765625 13 8 C11.60332244 12.88837146 9.65571105 17.34428895 6 21 C4.35 21 2.7 21 1 21 C0.67 14.07 0.34 7.14 0 0 Z " fill="#1677D4" transform="translate(219,279)"/>
<path d="M0 0 C4.70132368 2.11559566 9.20261586 4.26007724 13.5 7.125 C10.37063825 9.89352718 8.44946187 10.49039759 4.296875 10.41796875 C2.82734375 10.4034668 2.82734375 10.4034668 1.328125 10.38867188 C-0.19554687 10.3509668 -0.19554687 10.3509668 -1.75 10.3125 C-2.78125 10.29896484 -3.8125 10.28542969 -4.875 10.27148438 C-7.41719792 10.23617607 -9.95833223 10.18686036 -12.5 10.125 C-10.15548297 5.13928124 -5.82850137 0.29142507 0 0 Z " fill="#0D79D5" transform="translate(145.5,331.875)"/>
<path d="M0 0 C0.33 4.29 0.66 8.58 1 13 C3.97 11.68 6.94 10.36 10 9 C8.73205555 12.80383334 7.51834151 13.24082925 4 15 C2.33805547 15.35613097 0.671549 15.69208308 -1 16 C-1.99 16.66 -2.98 17.32 -4 18 C-5.32 18 -6.64 18 -8 18 C-9.18194925 13.6563365 -9.99866369 9.4543571 -9 5 C-6.60178424 2.27532555 -3.72614601 0 0 0 Z " fill="#FAB40F" transform="translate(60,260)"/>
<path d="M0 0 C17.16 0 34.32 0 52 0 C52 0.99 52 1.98 52 3 C48.77773092 4.07408969 47.27504151 3.92888005 43.953125 3.53515625 C35.53426874 2.74477839 27.18489146 3.1352081 18.75 3.4375 C17.11851014 3.49086649 15.48699961 3.54360519 13.85546875 3.59570312 C9.90337077 3.72324554 5.95164818 3.8592345 2 4 C1.34 2.68 0.68 1.36 0 0 Z " fill="#286F97" transform="translate(396,186)"/>
<path d="M0 0 C1.1055189 0.93590504 2.20935453 1.87379858 3.3125 2.8125 C3.92738281 3.33457031 4.54226562 3.85664063 5.17578125 4.39453125 C6.85424679 5.87172469 8.43882034 7.40039131 10 9 C8.85331791 12.44004627 8.12056696 13.26635169 5 15 C1.90095288 15.16751606 0.44139543 14.38530143 -1.875 12.36328125 C-3.63327904 10.61563696 -5.3356734 8.83699449 -7 7 C-5.3327868 3.22929351 -3.66521894 1.9290626 0 0 Z " fill="#FDB206" transform="translate(80,311)"/>
<path d="M0 0 C0.5775 0.226875 1.155 0.45375 1.75 0.6875 C2.08 2.0075 2.41 3.3275 2.75 4.6875 C-0.32392649 6.70225252 -3.41056296 8.69662911 -6.5 10.6875 C-7.37269531 11.25984375 -8.24539062 11.8321875 -9.14453125 12.421875 C-10.41103516 13.23398437 -10.41103516 13.23398437 -11.703125 14.0625 C-12.47817383 14.56523437 -13.25322266 15.06796875 -14.05175781 15.5859375 C-16.25 16.6875 -16.25 16.6875 -20.25 16.6875 C-18.70052293 12.56512581 -15.71287841 10.29450228 -12.375 7.625 C-11.84519531 7.19123047 -11.31539062 6.75746094 -10.76953125 6.31054688 C-9.27292694 5.09061011 -7.76181717 3.88853247 -6.25 2.6875 C-5.51007813 2.08421875 -4.77015625 1.4809375 -4.0078125 0.859375 C-2.25 -0.3125 -2.25 -0.3125 0 0 Z " fill="#187ADE" transform="translate(123.25,314.3125)"/>
<path d="M0 0 C0 4.29 0 8.58 0 13 C-5.66104589 12.50341703 -9.87674471 11.45489316 -15 9 C-15 8.34 -15 7.68 -15 7 C-12.87767021 5.82823482 -10.75242209 4.66245215 -8.625 3.5 C-7.72007812 2.99919922 -7.72007812 2.99919922 -6.796875 2.48828125 C-2.2265625 0 -2.2265625 0 0 0 Z " fill="#1870CB" transform="translate(209,284)"/>
<path d="M0 0 C-1.20381448 2.49361571 -2.45428722 4.68143083 -4 7 C-4.66 7 -5.32 7 -6 7 C-6 8.98 -6 10.96 -6 13 C-5.01 13.33 -4.02 13.66 -3 14 C-3.66 14 -4.32 14 -5 14 C-5.66 15.65 -6.32 17.3 -7 19 C-7.99 19 -8.98 19 -10 19 C-13.0705342 12.61328887 -13.0705342 12.61328887 -12.76953125 9.99609375 C-11.87655667 7.67979927 -10.75444244 6.18108946 -9.125 4.3125 C-8.61195312 3.71050781 -8.09890625 3.10851562 -7.5703125 2.48828125 C-5.17038153 0.21371981 -3.24962056 0 0 0 Z " fill="#0F6ECE" transform="translate(112,249)"/>
<path d="M0 0 C0.66 0.33 1.32 0.66 2 1 C0.33333333 4.33333333 -1.33333333 7.66666667 -3 11 C-2.34 11 -1.68 11 -1 11 C-1.33 12.98 -1.66 14.96 -2 17 C-6.24822374 16.52797514 -8.19989709 14.03344482 -11 11 C-9.14341452 6.44292656 -5.95248793 3.22727813 -1.8125 0.625 C-1.214375 0.41875 -0.61625 0.2125 0 0 Z " fill="#066FD6" transform="translate(141,295)"/>
<path d="M0 0 C0.32421875 2.234375 0.32421875 2.234375 0 5 C-2.23046875 7.203125 -2.23046875 7.203125 -5.1875 9.25 C-6.63189453 10.27867187 -6.63189453 10.27867187 -8.10546875 11.328125 C-10.85762039 12.91776184 -12.87407676 13.6114026 -16 14 C-15.17700198 9.27888724 -12.24900611 7.46263765 -8.5625 4.75 C-7.96373047 4.29109375 -7.36496094 3.8321875 -6.74804688 3.359375 C-2.28387742 0 -2.28387742 0 0 0 Z " fill="#1770DD" transform="translate(78,216)"/>
<path d="M0 0 C0 0.99 0 1.98 0 3 C-0.639375 3.2475 -1.27875 3.495 -1.9375 3.75 C-4.18476569 4.78364885 -4.18476569 4.78364885 -4.5 6.9375 C-4.665 7.618125 -4.83 8.29875 -5 9 C-7.0625 10.75 -7.0625 10.75 -9 12 C-11.99324263 10.9024777 -12.84610901 10.32317108 -14.25 7.375 C-14.4975 6.59125 -14.745 5.8075 -15 5 C-14.01 5 -13.02 5 -12 5 C-9.64903024 4.0421975 -7.31648799 3.03842565 -5 2 C-3.3357865 1.32723284 -1.67013418 0.65793165 0 0 Z " fill="#0C70DE" transform="translate(136,289)"/>
<path d="M0 0 C-0.61187071 2.99136793 -1.13868465 5.28404517 -3.55078125 7.2890625 C-6.95697048 9.31672975 -8.99391302 10 -13 10 C-12.27683681 5.62295962 -10.17787243 3.92173861 -6.85546875 1.1953125 C-4.47056457 -0.34106788 -2.77477034 -0.5045037 0 0 Z " fill="#0B72E0" transform="translate(79,280)"/>
<path d="M0 0 C0.66 0 1.32 0 2 0 C4.3992233 4.64849515 4.19957409 8.91086074 4 14 C2.68 14.33 1.36 14.66 0 15 C-0.19390729 12.68802845 -0.37996367 10.3753971 -0.5625 8.0625 C-0.71912109 6.13083984 -0.71912109 6.13083984 -0.87890625 4.16015625 C-0.91886719 3.11730469 -0.95882812 2.07445312 -1 1 C-0.67 0.67 -0.34 0.34 0 0 Z " fill="#1471D0" transform="translate(61,258)"/>
<path d="M0 0 C0.66 0 1.32 0 2 0 C2.43230491 7.34918342 0.81774185 13.90215087 -1 21 C-2.32 20.34 -3.64 19.68 -5 19 C-4.72285156 18.13117188 -4.44570313 17.26234375 -4.16015625 16.3671875 C-3.79792969 15.21476563 -3.43570312 14.06234375 -3.0625 12.875 C-2.52302734 11.16957031 -2.52302734 11.16957031 -1.97265625 9.4296875 C-1.08101661 6.28567301 -0.46648986 3.23105607 0 0 Z " fill="#2D74B0" transform="translate(381,196)"/>
<path d="M0 0 C1.98 0.99 3.96 1.98 6 3 C5.01 3.495 5.01 3.495 4 4 C3.31527335 5.88764903 3.31527335 5.88764903 2.875 8.0625 C2.70742187 8.79597656 2.53984375 9.52945312 2.3671875 10.28515625 C2.24601563 10.85105469 2.12484375 11.41695313 2 12 C0.68 12.33 -0.64 12.66 -2 13 C-2.05399736 11.54207116 -2.09279177 10.08357288 -2.125 8.625 C-2.15980469 7.40683594 -2.15980469 7.40683594 -2.1953125 6.1640625 C-2 4 -2 4 0 2 C0 1.34 0 0.68 0 0 Z " fill="#0F75CA" transform="translate(223,281)"/>
<path d="M0 0 C1.65 0.33 3.3 0.66 5 1 C5.8125 4.1875 5.8125 4.1875 6 8 C3.5625 10.9375 3.5625 10.9375 1 13 C0.01 12.67 -0.98 12.34 -2 12 C-1.690625 11.0925 -1.38125 10.185 -1.0625 9.25 C0.84326696 4.57207072 0.84326696 4.57207072 0 0 Z " fill="#ECC814" transform="translate(230,285)"/>
<path d="M0 0 C1.98 0.66 3.96 1.32 6 2 C5.51015625 2.51304687 5.0203125 3.02609375 4.515625 3.5546875 C2.46470847 6.86364046 2.66935288 9.26200272 2.75 13.125 C2.76546875 14.36507813 2.7809375 15.60515625 2.796875 16.8828125 C2.79139919 19.90622087 2.79139919 19.90622087 4 22 C3.91348369 23.54613014 3.75997364 25.08909387 3.5625 26.625 C3.46066406 27.44226563 3.35882813 28.25953125 3.25390625 29.1015625 C3.17011719 29.72804688 3.08632812 30.35453125 3 31 C2.67 31 2.34 31 2 31 C1.6626979 26.95865433 1.33086166 22.91687763 1 18.875 C0.85691406 17.16183594 0.85691406 17.16183594 0.7109375 15.4140625 C0.62070313 14.30546875 0.53046875 13.196875 0.4375 12.0546875 C0.35371094 11.03874512 0.26992187 10.02280273 0.18359375 8.97607422 C-0.0014882 5.9758761 -0.03134371 3.00507853 0 0 Z " fill="#F4D00A" transform="translate(170,281)"/>
<path d="M0 0 C0.66 0.33 1.32 0.66 2 1 C1.59007813 1.53109375 1.18015625 2.0621875 0.7578125 2.609375 C-0.05042969 3.66898438 -0.05042969 3.66898438 -0.875 4.75 C-1.40867187 5.44609375 -1.94234375 6.1421875 -2.4921875 6.859375 C-4.05098917 8.93326878 -4.05098917 8.93326878 -5.0078125 11.203125 C-6 13 -6 13 -9 14 C-9.66 12.35 -10.32 10.7 -11 9 C-7.37 6.03 -3.74 3.06 0 0 Z " fill="#1A6DC1" transform="translate(73,248)"/>
<path d="M0 0 C0.66 0 1.32 0 2 0 C2 1.65 2 3.3 2 5 C0.68 5 -0.64 5 -2 5 C-2.2475 5.78375 -2.495 6.5675 -2.75 7.375 C-4.21645279 10.45455085 -4.98576932 10.67019235 -8 12 C-9.37086915 13.29470975 -10.71340837 14.62150897 -12 16 C-9.8309466 9.67359424 -5.72471171 5.5970168 -1 1 C-0.67 0.67 -0.34 0.34 0 0 Z " fill="#086BCD" transform="translate(80,243)"/>
<path d="M0 0 C0.375 2.6875 0.375 2.6875 0 6 C-1.80904117 8.2225363 -3.56028425 9.37352284 -6 11 C-6.99 11 -7.98 11 -9 11 C-7.67043343 7.12209749 -4.98799344 0 0 0 Z " fill="#1F74D7" transform="translate(99,184)"/>
<path d="M0 0 C-1.3895462 3.35806998 -2.72945019 5.32052848 -6 7 C-9.75 6.6875 -9.75 6.6875 -13 6 C-9.00882171 1.56535745 -5.99782214 0 0 0 Z " fill="#FAD805" transform="translate(160,313)"/>
<path d="M0 0 C-1.56457565 4.22435427 -4.343426 6.49058647 -8 9 C-10.875 8.8125 -10.875 8.8125 -13 8 C-9.38769476 4.10982512 -5.53245841 0 0 0 Z " fill="#DDC020" transform="translate(140,293)"/>
<path d="M0 0 C1 3 1 3 -0.25 5.5625 C-2 8 -2 8 -5 10 C-5.99 10 -6.98 10 -8 10 C-8 7.69 -8 5.38 -8 3 C-7.01 3.495 -7.01 3.495 -6 4 C-2.79095003 2.29522678 -2.79095003 2.29522678 0 0 Z " fill="#0D70D5" transform="translate(103,243)"/>
<path d="M0 0 C5.28 0 10.56 0 16 0 C16 0.66 16 1.32 16 2 C14.02 2 12.04 2 10 2 C10 2.66 10 3.32 10 4 C3.375 3.375 3.375 3.375 0 0 Z " fill="#186BC7" transform="translate(134,163)"/>
<path d="M0 0 C0.33 0.99 0.66 1.98 1 3 C-0.109375 4.98046875 -0.109375 4.98046875 -1.75 7.1875 C-4.68093891 11.34534357 -6.4216924 15.17739346 -8 20 C-9.82676217 13.36229931 -7.07573393 8.80544779 -4 3 C-3.67 2.34 -3.34 1.68 -3 1 C-2.01 0.67 -1.02 0.34 0 0 Z " fill="#E4CB18" transform="translate(182,193)"/>
<path d="M0 0 C-1.36370299 2.99220268 -2.94908083 5.29026529 -5.125 7.75 C-5.93324219 8.67039063 -5.93324219 8.67039063 -6.7578125 9.609375 C-7.16773437 10.06828125 -7.57765625 10.5271875 -8 11 C-8.99 9.68 -9.98 8.36 -11 7 C-4.48275862 0 -4.48275862 0 0 0 Z " fill="#E2C91C" transform="translate(109,246)"/>
<path d="M0 0 C2.99324263 1.0975223 3.84610901 1.67682892 5.25 4.625 C5.4975 5.40875 5.745 6.1925 6 7 C5.01 7 4.02 7 3 7 C3 8.65 3 10.3 3 12 C1.68 11.34 0.36 10.68 -1 10 C-0.67 9.67 -0.34 9.34 0 9 C0.04063832 7.33382885 0.042721 5.66611905 0 4 C-0.66 3.67 -1.32 3.34 -2 3 C-1.34 2.01 -0.68 1.02 0 0 Z " fill="#2471BE" transform="translate(98,181)"/>
<path d="M0 0 C-1.36983503 3.16115776 -1.9890638 3.9927092 -5 6 C-5 5.34 -5 4.68 -5 4 C-6.11375 4.680625 -7.2275 5.36125 -8.375 6.0625 C-10.2734375 7.22265625 -10.2734375 7.22265625 -12 8 C-12.66 7.67 -13.32 7.34 -14 7 C-12.90081184 6.01524786 -11.7954398 5.03739527 -10.6875 4.0625 C-10.07261719 3.51722656 -9.45773438 2.97195313 -8.82421875 2.41015625 C-5.8165363 0.08515975 -3.81059937 0 0 0 Z " fill="#FEC801" transform="translate(122,272)"/>
<path d="M0 0 C0.66 0.33 1.32 0.66 2 1 C-4.93 7.435 -4.93 7.435 -12 14 C-12.99 13.67 -13.98 13.34 -15 13 C-13.06478939 11.20580474 -11.1269646 9.41458671 -9.1875 7.625 C-8.64029297 7.11710938 -8.09308594 6.60921875 -7.52929688 6.0859375 C-5.09977985 3.84783697 -2.75431332 1.83620888 0 0 Z " fill="#FFB50D" transform="translate(90,171)"/>
<path d="M0 0 C1.051875 0.14695312 1.051875 0.14695312 2.125 0.296875 C3.176875 0.42835938 3.176875 0.42835938 4.25 0.5625 C6.125 1.046875 6.125 1.046875 8.125 3.046875 C7.53332031 2.91667969 6.94164062 2.78648437 6.33203125 2.65234375 C3.86137283 2.2210869 1.63362105 1.94534565 -0.875 2.046875 C-3.72893478 4.15075264 -3.72893478 4.15075264 -5.875 7.046875 C-10.52364865 11.046875 -10.52364865 11.046875 -12.875 11.046875 C-11.72125622 7.58564366 -10.83827708 7.03537652 -7.9375 4.984375 C-0.98370855 0.02459271 -0.98370855 0.02459271 0 0 Z " fill="#FFD902" transform="translate(190.875,329.953125)"/>
<path d="M0 0 C0 0.99 0 1.98 0 3 C-3.50776784 4.60355101 -6.14354879 5.22036864 -10 5 C-10 4.01 -10 3.02 -10 2 C-6.3558226 -0.4294516 -4.28758728 -0.16179575 0 0 Z " fill="#1772CF" transform="translate(179,326)"/>
<path d="M0 0 C0.99 0.33 1.98 0.66 3 1 C1.19587357 4.26460973 0.16605307 5.88929795 -3 8 C-3.99 8 -4.98 8 -6 8 C-5.66354211 4.85972637 -4.94763914 3.94901705 -2.625 1.6875 C-1.75875 1.130625 -0.8925 0.57375 0 0 Z " fill="#0764ED" transform="translate(68,222)"/>
<path d="M0 0 C1.76462683 3.08809695 2 4.23312136 2 8 C-1.26954202 7.43628586 -2.82575883 6.50037734 -5 4 C-4.67 3.01 -4.34 2.02 -4 1 C-1.9375 0.3125 -1.9375 0.3125 0 0 Z " fill="#1B72D3" transform="translate(86,308)"/>
<path d="M0 0 C2.475 0.99 2.475 0.99 5 2 C3.06745228 4.0245738 1.36841312 5.42105792 -1 7 C-2.32 7 -3.64 7 -5 7 C-3.70700306 4.11562221 -2.34058637 2.12780579 0 0 Z " fill="#1F72D5" transform="translate(108,324)"/>
<path d="M0 0 C0 3 0 3 -1.875 5 C-4.93797149 9.32419505 -5.31106671 13.82393543 -6 19 C-6.33 19 -6.66 19 -7 19 C-8.0735426 9.73004484 -8.0735426 9.73004484 -5.44140625 5.48828125 C-3.70637388 3.54378823 -1.945725 1.73229088 0 0 Z " fill="#5183A3" transform="translate(95,196)"/>
<path d="M0 0 C-0.66 2.31 -1.32 4.62 -2 7 C-3.65 7.33 -5.3 7.66 -7 8 C-6.44414399 4.1090079 -4.34122117 0 0 0 Z " fill="#207BDF" transform="translate(73,282)"/>
<path d="M0 0 C-0.54299687 3.80097811 -2.07276772 5.57457897 -5 8 C-7.25 8.75 -7.25 8.75 -9 9 C-8.82701599 6.66471585 -8.29774631 5.30822418 -6.66796875 3.62109375 C-2.42788462 0 -2.42788462 0 0 0 Z " fill="#FED001" transform="translate(98,259)"/>
<path d="M0 0 C0.99 0.33 1.98 0.66 3 1 C0.34345343 4.73884332 -1.58110387 6.64978174 -6 8 C-5.66354211 4.85972637 -4.94763914 3.94901705 -2.625 1.6875 C-1.75875 1.130625 -0.8925 0.57375 0 0 Z " fill="#FECD00" transform="translate(127,306)"/>
<path d="M0 0 C0 0.99 0 1.98 0 3 C-0.639375 3.2475 -1.27875 3.495 -1.9375 3.75 C-4.19060573 4.80148727 -4.19060573 4.80148727 -4.625 7.0625 C-4.74875 7.701875 -4.8725 8.34125 -5 9 C-5.99 9.495 -5.99 9.495 -7 10 C-6.67 8.35 -6.34 6.7 -6 5 C-6.66 4.67 -7.32 4.34 -8 4 C-5.36 2.68 -2.72 1.36 0 0 Z " fill="#0570CF" transform="translate(136,289)"/>
<path d="M0 0 C1.134375 0.020625 2.26875 0.04125 3.4375 0.0625 C3.1075 1.0525 2.7775 2.0425 2.4375 3.0625 C2.1075 2.4025 1.7775 1.7425 1.4375 1.0625 C0.57125 1.701875 -0.295 2.34125 -1.1875 3 C-4.5223812 5.03798296 -6.72297478 5.69683093 -10.5625 6.0625 C-10.5625 5.4025 -10.5625 4.7425 -10.5625 4.0625 C-9.593125 3.588125 -8.62375 3.11375 -7.625 2.625 C-2.56831395 0.04505814 -2.56831395 0.04505814 0 0 Z " fill="#FDCF02" transform="translate(90.5625,195.9375)"/>
<path d="M0 0 C0.99 0 1.98 0 3 0 C3 0.99 3 1.98 3 3 C-4.92 3 -12.84 3 -21 3 C-21 2.67 -21 2.34 -21 2 C-14.07 2 -7.14 2 0 2 C0 1.34 0 0.68 0 0 Z " fill="#045ECF" transform="translate(444,323)"/>
<path d="M0 0 C3.01343955 3.32851768 3.44667544 5.81882813 3.6875 10.25 C3.78611328 11.86648437 3.78611328 11.86648437 3.88671875 13.515625 C3.92410156 14.33546875 3.96148437 15.1553125 4 16 C1.45718331 13.45718331 1.16836595 11.47356329 0.3125 8 C0.04050781 6.9275 -0.23148437 5.855 -0.51171875 4.75 C-1 2 -1 2 0 0 Z " fill="#3079C3" transform="translate(91,231)"/>
<path d="M0 0 C-1 2 -1 2 -2.9609375 2.8515625 C-3.75757813 3.10679687 -4.55421875 3.36203125 -5.375 3.625 C-6.16648437 3.88539063 -6.95796875 4.14578125 -7.7734375 4.4140625 C-10 5 -10 5 -13 5 C-12.67 3.68 -12.34 2.36 -12 1 C-10.68 1 -9.36 1 -8 1 C-6.96875 0.649375 -5.9375 0.29875 -4.875 -0.0625 C-2 -1 -2 -1 0 0 Z " fill="#0768D9" transform="translate(291,210)"/>
<path d="M0 0 C1.32 0 2.64 0 4 0 C6.14285714 7.42857143 6.14285714 7.42857143 7 11 C4.35247996 8.42215154 2.05567935 6.08351902 0 3 C0 2.01 0 1.02 0 0 Z " fill="#1C6ECD" transform="translate(155,252)"/>
<path d="M0 0 C0.33 0.66 0.66 1.32 1 2 C-0.45365269 3.17249353 -1.91307419 4.33783816 -3.375 5.5 C-4.18710937 6.1496875 -4.99921875 6.799375 -5.8359375 7.46875 C-8 9 -8 9 -10 9 C-8.50521886 5.19510255 -6.30557786 3.33809165 -3 1 C-2.01 0.67 -1.02 0.34 0 0 Z " fill="#FEC00A" transform="translate(60,229)"/>
<path d="M0 0 C0.53625 0.268125 1.0725 0.53625 1.625 0.8125 C0.965 2.1325 0.305 3.4525 -0.375 4.8125 C-3.04166667 4.8125 -5.70833333 4.8125 -8.375 4.8125 C-2.95961538 -0.23365385 -2.95961538 -0.23365385 0 0 Z " fill="#F8BE09" transform="translate(161.375,309.1875)"/>
<path d="M0 0 C0.66 0 1.32 0 2 0 C1.62952882 2.74148672 1.31412056 4.58593199 -0.375 6.8125 C-2 8 -2 8 -5 8 C-3.63055898 5.05043472 -2.12169591 2.47531189 0 0 Z " fill="#3A75CF" transform="translate(77,198)"/>
<path d="M0 0 C1.32 0.33 2.64 0.66 4 1 C4 2.98 4 4.96 4 7 C2.68 7.33 1.36 7.66 0 8 C0 5.36 0 2.72 0 0 Z " fill="#187DDB" transform="translate(61,265)"/>
<path d="M0 0 C0.99 0 1.98 0 3 0 C3 1.65 3 3.3 3 5 C1.68 5.33 0.36 5.66 -1 6 C-1.66 4.68 -2.32 3.36 -3 2 C-2.01 2 -1.02 2 0 2 C0 1.34 0 0.68 0 0 Z " fill="#1771D3" transform="translate(91,315)"/>
<path d="M0 0 C4.38889325 0.66498383 7.9811485 2.18757677 12 4 C12 4.66 12 5.32 12 6 C7.24518354 5.42365861 4.02951788 3.44931479 0 1 C0 0.67 0 0.34 0 0 Z " fill="#FCCD02" transform="translate(181,287)"/>
<path d="M0 0 C3.73487777 0.4979837 5.81237635 0.87491756 9 3 C9.6875 5.125 9.6875 5.125 10 7 C9.01 7.495 9.01 7.495 8 8 C7.67 6.68 7.34 5.36 7 4 C6.01 4 5.02 4 4 4 C3.34 3.34 2.68 2.68 2 2 C1.34 2 0.68 2 0 2 C0 1.34 0 0.68 0 0 Z " fill="#0862D0" transform="translate(256,248)"/>
<path d="M0 0 C0 1.98 0 3.96 0 6 C-1.98 6.33 -3.96 6.66 -6 7 C-5.60799596 4.15797072 -5.2043974 3.17884772 -3 1.25 C-1 0 -1 0 0 0 Z " fill="#0D6EE6" transform="translate(99,184)"/>
<path d="M0 0 C0.66 0.33 1.32 0.66 2 1 C2 1.66 2 2.32 2 3 C0.3203125 4.32421875 0.3203125 4.32421875 -1.875 5.6875 C-2.59429687 6.14511719 -3.31359375 6.60273438 -4.0546875 7.07421875 C-5.01761719 7.53248047 -5.01761719 7.53248047 -6 8 C-6.66 7.67 -7.32 7.34 -8 7 C-5.36 4.69 -2.72 2.38 0 0 Z " fill="#236DB6" transform="translate(92,301)"/>
<path d="M0 0 C1.8125 0.9375 1.8125 0.9375 2.8125 3.9375 C1.1625 4.2675 -0.4875 4.5975 -2.1875 4.9375 C-2.1875 4.2775 -2.1875 3.6175 -2.1875 2.9375 C-3.5075 3.2675 -4.8275 3.5975 -6.1875 3.9375 C-2.77921598 -0.07940617 -2.77921598 -0.07940617 0 0 Z " fill="#246ABD" transform="translate(105.1875,293.0625)"/>
<path d="M0 0 C0.99 0.33 1.98 0.66 3 1 C3.33 1.99 3.66 2.98 4 4 C3.01 4.495 3.01 4.495 2 5 C2 4.34 2 3.68 2 3 C1.01 3 0.02 3 -1 3 C-1.33 3.99 -1.66 4.98 -2 6 C-3.32 5.67 -4.64 5.34 -6 5 C-1.60546875 0.99609375 -1.60546875 0.99609375 0 0 Z " fill="#226CBA" transform="translate(89,268)"/>
<path d="M0 0 C0.66 0 1.32 0 2 0 C2 1.32 2 2.64 2 4 C2.99 4.33 3.98 4.66 5 5 C4.34 5 3.68 5 3 5 C2.34 6.65 1.68 8.3 1 10 C0.34 10 -0.32 10 -1 10 C-0.67 6.7 -0.34 3.4 0 0 Z " fill="#0273D6" transform="translate(104,258)"/>
<path d="M0 0 C0.33 0.99 0.66 1.98 1 3 C-1.3125 6.1875 -1.3125 6.1875 -4 9 C-4.66 9 -5.32 9 -6 9 C-4.68775452 5.06326356 -3.08089673 2.77280706 0 0 Z " fill="#FFBF07" transform="translate(74,185)"/>
<path d="M0 0 C0.66 0.33 1.32 0.66 2 1 C1.01 2.485 1.01 2.485 0 4 C3.3 4 6.6 4 10 4 C10 4.33 10 4.66 10 5 C5.71 5 1.42 5 -3 5 C-1 1 -1 1 0 0 Z " fill="#5183A8" transform="translate(136,337)"/>
<path d="M0 0 C0 3.39593478 -0.52165948 4.06619881 -2.5 6.6875 C-2.9640625 7.31011719 -3.428125 7.93273437 -3.90625 8.57421875 C-4.2671875 9.04472656 -4.628125 9.51523437 -5 10 C-5.66 9.67 -6.32 9.34 -7 9 C-5.44499019 5.18315774 -2.96404505 2.80804268 0 0 Z " fill="#2972BF" transform="translate(137,297)"/>
<path d="M0 0 C0.66 0.33 1.32 0.66 2 1 C0.54782324 2.50596108 -0.91192861 4.00462104 -2.375 5.5 C-3.18710938 6.3353125 -3.99921875 7.170625 -4.8359375 8.03125 C-7 10 -7 10 -9 10 C-7.84906278 6.54718834 -6.6794007 5.61917837 -3.9375 3.3125 C-2.83728516 2.37857422 -2.83728516 2.37857422 -1.71484375 1.42578125 C-1.14894531 0.95527344 -0.58304688 0.48476563 0 0 Z " fill="#F9D905" transform="translate(109,285)"/>
<path d="M0 0 C0 1.65 0 3.3 0 5 C-2.31 5 -4.62 5 -7 5 C-2.25 0 -2.25 0 0 0 Z " fill="#1767C9" transform="translate(82,243)"/>
<path d="M0 0 C1.21236328 0.02707031 1.21236328 0.02707031 2.44921875 0.0546875 C3.37154297 0.08949219 3.37154297 0.08949219 4.3125 0.125 C3.9825 1.115 3.6525 2.105 3.3125 3.125 C-0.3175 2.795 -3.9475 2.465 -7.6875 2.125 C-4.48369983 -0.01086678 -3.66810033 -0.10632175 0 0 Z " fill="#0254CB" transform="translate(442.6875,186.875)"/>
<path d="M0 0 C3.3 0.33 6.6 0.66 10 1 C9.67 2.32 9.34 3.64 9 5 C8.1646875 4.566875 8.1646875 4.566875 7.3125 4.125 C4.91505355 2.9586747 2.48403061 1.9660119 0 1 C0 0.67 0 0.34 0 0 Z " fill="#C0A43B" transform="translate(151,335)"/>
<path d="M0 0 C0.66 0.66 1.32 1.32 2 2 C-0.31 4.64 -2.62 7.28 -5 10 C-5.66 9.67 -6.32 9.34 -7 9 C-4.69 6.03 -2.38 3.06 0 0 Z " fill="#E4DF24" transform="translate(276,305)"/>
<path d="M0 0 C1.32 0.33 2.64 0.66 4 1 C4.33 2.32 4.66 3.64 5 5 C3.68 5.33 2.36 5.66 1 6 C0.67 4.02 0.34 2.04 0 0 Z " fill="#2177CB" transform="translate(219,279)"/>
<path d="M0 0 C1.65 0 3.3 0 5 0 C5.33 1.32 5.66 2.64 6 4 C4.68 4 3.36 4 2 4 C1.34 2.68 0.68 1.36 0 0 Z " fill="#056AE7" transform="translate(176,190)"/>
<path d="M0 0 C1.65 0 3.3 0 5 0 C4.42655063 2.86724686 4.1385485 3.8614515 2 6 C0 3 0 3 0 0 Z " fill="#0866D8" transform="translate(110,174)"/>
<path d="M0 0 C2.97 0.495 2.97 0.495 6 1 C5.67 1.66 5.34 2.32 5 3 C2.35139573 3.59355614 -0.29197322 3.74209269 -3 4 C-2.01 2.68 -1.02 1.36 0 0 Z " fill="#0972E8" transform="translate(153,337)"/>
<path d="M0 0 C0.33 0 0.66 0 1 0 C1 2.31 1 4.62 1 7 C-0.32 6.67 -1.64 6.34 -3 6 C-2.42655063 3.13275314 -2.1385485 2.1385485 0 0 Z " fill="#046EE8" transform="translate(135,302)"/>
<path d="M0 0 C-0.33 0.66 -0.66 1.32 -1 2 C-1.33 2.99 -1.66 3.98 -2 5 C-3.65 4.67 -5.3 4.34 -7 4 C-7 3.34 -7 2.68 -7 2 C-4.35261084 0.5393715 -3.10551666 0 0 0 Z " fill="#2D72BE" transform="translate(201,289)"/>
<path d="M0 0 C-1.36983503 3.16115776 -1.9890638 3.9927092 -5 6 C-5 5.34 -5 4.68 -5 4 C-5.66 3.67 -6.32 3.34 -7 3 C-4.49955934 -0.00052879 -4.2621484 0 0 0 Z " fill="#EFCA18" transform="translate(122,272)"/>
<path d="M0 0 C0.763125 0.20625 1.52625 0.4125 2.3125 0.625 C0.5625 2.6875 0.5625 2.6875 -1.6875 4.625 C-3.9375 4.375 -3.9375 4.375 -5.6875 3.625 C-5.6875 2.965 -5.6875 2.305 -5.6875 1.625 C-2.6875 -0.375 -2.6875 -0.375 0 0 Z " fill="#F6C313" transform="translate(97.6875,221.375)"/>
<path d="M0 0 C-0.8125 1.9375 -0.8125 1.9375 -2 4 C-5 5 -5 5 -7.1875 4.0625 C-7.785625 3.711875 -8.38375 3.36125 -9 3 C-3.375 0 -3.375 0 0 0 Z " fill="#D1AC24" transform="translate(99,192)"/>
<path d="M0 0 C1.0828125 0.37125 1.0828125 0.37125 2.1875 0.75 C1.589375 1.03875 0.99125 1.3275 0.375 1.625 C-2.00577792 2.79742026 -2.00577792 2.79742026 -4.8125 4.75 C-5.8025 4.42 -6.7925 4.09 -7.8125 3.75 C-3.50480769 -0.31153846 -3.50480769 -0.31153846 0 0 Z " fill="#2574B8" transform="translate(145.8125,332.25)"/>
<path d="M0 0 C-0.66 1.32 -1.32 2.64 -2 4 C-4.62113708 4 -6.50935112 3.68707555 -9 3 C-2.25 0 -2.25 0 0 0 Z " fill="#EDD70F" transform="translate(136,297)"/>
<path d="M0 0 C5.75 1.875 5.75 1.875 8 3 C7.67 3.99 7.34 4.98 7 6 C3.535 4.02 3.535 4.02 0 2 C0 1.34 0 0.68 0 0 Z " fill="#1D77C6" transform="translate(197,268)"/>
<path d="M0 0 C0.33 1.32 0.66 2.64 1 4 C-1.97 6.475 -1.97 6.475 -5 9 C-5.66 8.67 -6.32 8.34 -7 8 C-4.79020692 5.18060883 -2.59937954 2.46941056 0 0 Z " fill="#FCC603" transform="translate(89,233)"/>
<path d="M0 0 C0.66 0.33 1.32 0.66 2 1 C-1.465 3.97 -1.465 3.97 -5 7 C-5 5.68 -5 4.36 -5 3 C-2.625 1.1875 -2.625 1.1875 0 0 Z " fill="#3E73B0" transform="translate(133,201)"/>
<path d="M0 0 C0.66 0.33 1.32 0.66 2 1 C0.1875 3.5 0.1875 3.5 -2 6 C-2.99 6 -3.98 6 -5 6 C-3.63016497 2.83884224 -3.0109362 2.0072908 0 0 Z " fill="#2D74AE" transform="translate(197,192)"/>
<path d="M0 0 C0.99 0.99 1.98 1.98 3 3 C2.67 3.99 2.34 4.98 2 6 C1.01 6.33 0.02 6.66 -1 7 C-0.67 4.69 -0.34 2.38 0 0 Z " fill="#1D73CE" transform="translate(112,302)"/>
<path d="M0 0 C0 0.99 0 1.98 0 3 C-2.3125 4.75 -2.3125 4.75 -5 6 C-5.99 5.67 -6.98 5.34 -8 5 C-5.44008376 2.98863724 -2.95409701 1.37154504 0 0 Z " fill="#E4D716" transform="translate(69,269)"/>
<path d="M0 0 C1.485 0.99 1.485 0.99 3 2 C3 3.32 3 4.64 3 6 C1.68 5.67 0.36 5.34 -1 5 C-0.67 3.35 -0.34 1.7 0 0 Z " fill="#046CE7" transform="translate(263,204)"/>
<path d="M0 0 C1.32 0.33 2.64 0.66 4 1 C3.67 1.99 3.34 2.98 3 4 C1.35 4 -0.3 4 -2 4 C-1.34 2.68 -0.68 1.36 0 0 Z " fill="#0474DC" transform="translate(138,337)"/>
<path d="M0 0 C0.66 0 1.32 0 2 0 C2 0.66 2 1.32 2 2 C4.97 2 7.94 2 11 2 C11 2.33 11 2.66 11 3 C7.04 3 3.08 3 -1 3 C-0.67 2.01 -0.34 1.02 0 0 Z " fill="#0763CE" transform="translate(399,323)"/>
<path d="M0 0 C0.99 0 1.98 0 3 0 C3 1.32 3 2.64 3 4 C1.68 3.67 0.36 3.34 -1 3 C-0.67 2.01 -0.34 1.02 0 0 Z " fill="#0670F1" transform="translate(111,322)"/>
<path d="M0 0 C3.3 0.99 6.6 1.98 10 3 C10 3.33 10 3.66 10 4 C2.25 4.125 2.25 4.125 0 3 C0 2.01 0 1.02 0 0 Z " fill="#FBC805" transform="translate(210,296)"/>
<path d="M0 0 C0.66 0.99 1.32 1.98 2 3 C-0.97 5.475 -0.97 5.475 -4 8 C-4.66 7.67 -5.32 7.34 -6 7 C-4.02 4.69 -2.04 2.38 0 0 Z " fill="#FCBE02" transform="translate(111,284)"/>
<path d="M0 0 C0.33 0.66 0.66 1.32 1 2 C1.99 2.33 2.98 2.66 4 3 C1 5 1 5 -2 5 C-1.125 1.125 -1.125 1.125 0 0 Z " fill="#2F6AB7" transform="translate(64,225)"/>
<path d="M0 0 C0.98120464 3.05263664 0.98120464 4.94736336 0 8 C0.66 8.33 1.32 8.66 2 9 C0.68 9.33 -0.64 9.66 -2 10 C-1.54177532 6.53058454 -1.10868317 3.32604951 0 0 Z " fill="#4C84A4" transform="translate(278,207)"/>
</svg>
